<?xml version="1.0" encoding="utf-8"?>
<!-- Generator: Adobe Illustrator 16.2.0, SVG Export Plug-In . SVG Version: 6.00 Build 0)  -->
<!DOCTYPE svg PUBLIC "-//W3C//DTD SVG 1.1//EN" "http://www.w3.org/Graphics/SVG/1.1/DTD/svg11.dtd">
<svg version="1.1" xmlns="http://www.w3.org/2000/svg" xmlns:xlink="http://www.w3.org/1999/xlink" x="0px" y="0px" width="22px"
	 height="22px" viewBox="0 0 22 22" enable-background="new 0 0 22 22" xml:space="preserve">
<g id="Layer_1">
	<g>
		<path fill="#5C0D04" d="M19.19,6.919l-0.025-0.217l-0.042,0.006C19.012,6.466,18.77,6.3,18.496,6.3h-3.3V5.5
			c0-2.316-1.884-4.2-4.2-4.2s-4.2,1.884-4.2,4.2v0.8h-3.3c-0.279,0-0.519,0.163-0.628,0.409L2.817,6.7L1.801,19.919l-0.005,0.183
			l0.008,0.001C1.854,20.44,2.145,20.7,2.496,20.7h17c0.329,0,0.605-0.228,0.67-0.593l0.039-0.006L19.19,6.919z M8.196,5.5
			c0-1.544,1.256-2.8,2.8-2.8s2.8,1.256,2.8,2.8v0.8h-5.6V5.5z M3.405,17.3l0.738-9.6h2.653V9.53c-0.311,0.224-0.5,0.585-0.5,0.969
			c0,0.661,0.539,1.2,1.2,1.2s1.2-0.539,1.2-1.2c0-0.384-0.189-0.745-0.5-0.969V7.7h5.6V9.53c-0.311,0.224-0.5,0.585-0.5,0.969
			c0,0.661,0.539,1.2,1.2,1.2s1.2-0.539,1.2-1.2c0-0.384-0.189-0.745-0.5-0.969V7.7h2.653l0.738,9.6H3.405z"/>
		<polygon fill="#FF6B6F" points="18.745,19.3 18.699,18.7 3.301,18.7 3.255,19.3 		"/>
	</g>
</g>
<g id="Слой_2">
</g>
</svg>
