<svg xmlns="http://www.w3.org/2000/svg" viewBox="0 0 13.6 12.53"><defs><style>.cls-1{fill:#858585;}</style></defs><title>comments</title><g id="Слой_2" data-name="Слой 2"><g id="Layer_1" data-name="Layer 1"><path class="cls-1" d="M1.85,9.43A5.08,5.08,0,0,1,0,5.6C0,2.51,3.05,0,6.8,0s6.8,2.51,6.8,5.6-3.05,5.6-6.8,5.6A8.21,8.21,0,0,1,5,11L1.12,12.53ZM6.8,1C3.6,1,1,3.06,1,5.6A4.12,4.12,0,0,0,2.58,8.75a.8.8,0,0,1,.26.8l-.31,1.34L4.65,10a.79.79,0,0,1,.3-.06l.19,0a7.28,7.28,0,0,0,1.66.2c3.2,0,5.8-2.06,5.8-4.6S10,1,6.8,1Z"/></g></g></svg>