<svg xmlns="http://www.w3.org/2000/svg" viewBox="0 0 18.52 22"><defs><style>.cls-1{fill:#5c0d04;}.cls-2{fill:#ff6b6f;}</style></defs><title>comp</title><g id="Слой_2" data-name="Слой 2"><g id="Layer_1" data-name="Layer 1"><path class="cls-1" d="M3.12,0A3.12,3.12,0,0,0,0,3.12V18.88A3.12,3.12,0,0,0,3.12,22h14.7a.7.7,0,0,0,.7-.7V.7a.7.7,0,0,0-.7-.7Zm0,1.4h14V15.77h-14a3.1,3.1,0,0,0-1.72.52V3.12A1.72,1.72,0,0,1,3.12,1.4Zm14,19.21h-14a1.72,1.72,0,1,1,0-3.44h14v1h-11a.7.7,0,1,0,0,1.4h11Zm0,0"/><path class="cls-2" d="M6.47,9.79v2.64a.7.7,0,0,0,.7.7h4.19a.7.7,0,0,0,.7-.7V9.79A2.49,2.49,0,0,0,11.24,5a2.49,2.49,0,0,0-4,0,2.49,2.49,0,0,0-.81,4.79Zm.93-3.4h.16A.7.7,0,0,0,8.28,6a1.09,1.09,0,0,1,2,0,.7.7,0,0,0,.73.38h.16a1.09,1.09,0,0,1,.14,2.17.7.7,0,0,0-.61.69v2.48H7.86V9.31h0a.7.7,0,0,0-.61-.74A1.09,1.09,0,0,1,7.39,6.4Zm0,0"/></g></g></svg>