<?xml version="1.0"?>
<!--Icons from directory ""-->
<svg xmlns="http://www.w3.org/2000/svg" width="22" height="528" viewBox="0 0 22 528"><svg xmlns:xlink="http://www.w3.org/1999/xlink" xml:space="preserve" height="22" width="22" version="1.1" y="0" x="0px" viewBox="0 0 22 22" enable-background="new 0 0 22 22" id="bag-09"><g id="bag-09-Layer_1">		<path d="m19.19 6.919l-0.025-0.217-0.042 0.006c-0.111-0.242-0.353-0.408-0.627-0.408h-3.3v-0.8c0-2.316-1.884-4.2-4.2-4.2s-4.2 1.884-4.2 4.2v0.8h-3.3c-0.279 0-0.519 0.163-0.628 0.409l-0.051-0.009-1.016 13.219-0.005 0.183 0.008 0.001c0.05 0.337 0.341 0.597 0.692 0.597h17c0.329 0 0.605-0.228 0.67-0.593l0.039-0.006-1.015-13.182zm-10.994-1.419c0-1.544 1.256-2.8 2.8-2.8s2.8 1.256 2.8 2.8v0.8h-5.6v-0.8zm-4.791 11.8l0.738-9.6h2.653v1.83c-0.311 0.224-0.5 0.585-0.5 0.969 0 0.661 0.539 1.2 1.2 1.2s1.2-0.539 1.2-1.2c0-0.384-0.189-0.745-0.5-0.969v-1.83h5.6v1.83c-0.311 0.224-0.5 0.585-0.5 0.969 0 0.661 0.539 1.2 1.2 1.2s1.2-0.539 1.2-1.2c0-0.384-0.189-0.745-0.5-0.969v-1.83h2.653l0.738 9.6h-15.182z" fill="#5C0D04"/>		<polygon points="18.745 19.3 18.699 18.7 3.301 18.7 3.255 19.3" fill="#FF6B6F"/></g></svg><svg xmlns:xlink="http://www.w3.org/1999/xlink" xml:space="preserve" height="22" width="22" version="1.1" y="22" x="0px" viewBox="0 0 22 22" enable-background="new 0 0 22 22" id="bakery-08"><g id="bakery-08-Layer_1">		<path d="m21.313 18.66h-0.294v-12.374h0.294c0.378 0 0.687-0.309 0.687-0.688s-0.309-0.688-0.688-0.688h-0.294v-1.767c0-0.649-0.529-1.179-1.179-1.179h-17.678c-0.649 0-1.179 0.529-1.179 1.179v1.768h-0.294c-0.379 0-0.688 0.308-0.688 0.687s0.309 0.688 0.688 0.688h0.294v12.374h-0.294c-0.379 0-0.688 0.309-0.688 0.688s0.309 0.688 0.688 0.688h20.625c0.379 0 0.688-0.31 0.688-0.688-0.001-0.379-0.31-0.688-0.688-0.688zm-9.527 0h-1.571v-4.517h1.571v4.517zm7.857 0h-6.482v-5.205c0-0.379-0.309-0.688-0.688-0.688h-2.946c-0.379 0-0.688 0.309-0.688 0.688v5.205h-6.482v-9.854c0.369 0.274 0.816 0.426 1.277 0.426 0.546 0 1.073-0.214 1.473-0.59 0.4 0.376 0.926 0.59 1.473 0.59 0.546 0 1.073-0.214 1.473-0.59 0.4 0.376 0.926 0.59 1.473 0.59 0.546 0 1.073-0.214 1.473-0.59 0.4 0.376 0.926 0.59 1.473 0.59s1.073-0.214 1.473-0.59c0.4 0.376 0.927 0.59 1.473 0.59 0.547 0 1.073-0.214 1.473-0.59 0.4 0.376 0.927 0.59 1.473 0.59 0.461 0 0.908-0.152 1.277-0.427v9.855zm0-13.749h-17.286v-1.571h17.285v1.571z" fill="#5C0D04"/><g fill="#FF6B6F">		<path d="m17.7 7c0 0.441 0.359 0.8 0.8 0.8s0.8-0.358 0.8-0.8v-0.799h-1.6v0.799z"/>		<path d="m14.7 7c0 0.441 0.359 0.8 0.8 0.8s0.8-0.358 0.8-0.8v-0.799h-1.6v0.799z"/>		<path d="m11.7 7c0 0.441 0.359 0.8 0.8 0.8s0.8-0.358 0.8-0.8v-0.799h-1.6v0.799z"/>		<path d="m8.7 7c0 0.441 0.359 0.8 0.8 0.8s0.8-0.358 0.8-0.8v-0.799h-1.6v0.799z"/>		<path d="m5.7 7c0 0.441 0.359 0.8 0.8 0.8s0.8-0.359 0.8-0.8v-0.799h-1.6v0.799z"/>		<path d="m2.7 7c0 0.441 0.359 0.8 0.8 0.8s0.8-0.359 0.8-0.8v-0.799h-1.6v0.799z"/>		</g><path d="m14.5 17.201c-0.386 0-0.7-0.315-0.7-0.701v-3c0-0.386 0.314-0.7 0.7-0.7h3c0.386 0 0.7 0.314 0.7 0.7v3c0 0.386-0.314 0.701-0.7 0.701h-3z" fill="#5C0D04"/>		<rect y="14.2" x="15.2" height="1.599" width="1.6" fill="#FFF0E3"/>		<path d="m4.5 17.201c-0.386 0-0.7-0.315-0.7-0.701v-3c0-0.386 0.314-0.7 0.7-0.7h3c0.386 0 0.7 0.314 0.7 0.7v3c0 0.386-0.314 0.701-0.7 0.701h-3z" fill="#5C0D04"/>		<rect y="14.2" x="5.2" height="1.599" width="1.6" fill="#FFF0E3"/></g></svg><svg xmlns:xlink="http://www.w3.org/1999/xlink" xml:space="preserve" height="22" width="22" version="1.1" y="44" x="0px" viewBox="0 0 22 22" enable-background="new 0 0 22 22" id="cake-16"><g id="cake-16-Layer_1">		<path d="m19.938 9.625h-6.188v-0.687c0-1.139-0.923-2.062-2.063-2.063h-1.375c-1.138 0.001-2.062 0.924-2.062 2.063v0.688h-6.187c-1.139 0-2.063 0.923-2.063 2.062v8.25c0 1.139 0.924 2.062 2.063 2.062h17.875c1.139 0 2.062-0.923 2.062-2.062v-8.25c0-1.139-0.923-2.062-2.062-2.063zm-10.313-0.687c0-0.379 0.309-0.687 0.688-0.687h1.375c0.38 0 0.688 0.308 0.688 0.687v0.688h-2.75v-0.688zm11 11c0 0.38-0.308 0.687-0.688 0.688h-17.874c-0.379 0-0.688-0.308-0.688-0.688v-0.688h19.25v0.688zm0-2.063h-19.25v-1.757c0 0.237 0.872 0.382 1.375 0.382 0.826 0 1.559-0.372 2.063-0.95 0.504 0.577 1.236 0.95 2.063 0.95s1.559-0.372 2.063-0.95c0.502 0.577 1.235 0.95 2.061 0.95s1.559-0.372 2.063-0.95c0.504 0.577 1.236 0.95 2.063 0.95s1.559-0.372 2.063-0.95c0.504 0.577 1.236 0.95 2.063 0.95 0.503 0 0.688-0.146 1.375-0.382v1.757zm0-4.125c0 0.757-0.618 1.374-1.375 1.375-0.756-0.001-1.374-0.619-1.375-1.375 0-0.379-0.308-0.688-0.688-0.688-0.379 0-0.688 0.308-0.688 0.688-0.001 0.757-0.618 1.374-1.375 1.375-0.756-0.001-1.373-0.619-1.375-1.375 0-0.379-0.308-0.688-0.688-0.688s-0.688 0.308-0.688 0.688c-0.001 0.757-0.618 1.374-1.375 1.375-0.756-0.001-1.373-0.619-1.375-1.375 0-0.379-0.308-0.688-0.688-0.688-0.379 0-0.688 0.308-0.688 0.688-0.001 0.757-0.619 1.374-1.375 1.375-0.753-0.001-1.37-0.618-1.372-1.375 0-0.379-0.308-0.688-0.688-0.688-0.379 0-0.688 0.308-0.688 0.688-0.001 0.757-0.618 1.374-1.375 1.375-0.756-0.001-1.375-0.619-1.375-1.375v-2.062c0-0.38 0.309-0.688 0.688-0.688h17.875c0.38 0 0.688 0.308 0.688 0.688v2.062z" fill="#5C0D04"/>			<path d="m13.75 4.125c-0.008-0.488-0.185-0.906-0.399-1.332-0.649-1.25-1.823-2.541-1.839-2.565-0.131-0.145-0.315-0.228-0.512-0.228s-0.381 0.083-0.512 0.229c-0.01 0.011-0.537 0.599-1.077 1.35-0.271 0.377-0.545 0.793-0.763 1.214-0.213 0.427-0.39 0.844-0.398 1.332 0.001 1.518 1.231 2.749 2.75 2.75 1.518-0.001 2.749-1.232 2.75-2.75z" fill="#5C0D04"/>			<path d="m12.375 4.125c-0.001 0.756-0.619 1.374-1.375 1.375-0.756-0.001-1.374-0.619-1.375-1.375-0.008-0.08 0.073-0.377 0.246-0.703 0.253-0.495 0.67-1.081 1.018-1.524 0.039-0.05 0.074-0.092 0.111-0.139 0.202 0.253 0.436 0.56 0.655 0.882 0.209 0.308 0.402 0.625 0.533 0.903 0.135 0.273 0.192 0.513 0.187 0.581z" fill="#FF6B6F"/></g></svg><svg xmlns:xlink="http://www.w3.org/1999/xlink" xml:space="preserve" height="22" width="22" version="1.1" y="66" x="0px" viewBox="0 0 22 22" enable-background="new 0 0 22 22" id="cart-13"><g id="cart-13-Layer_1">	<path d="m17.87 19.051c-1.191 0-2.16-0.968-2.16-2.16 0-0.27 0.052-0.533 0.155-0.786h-4.826c0.103 0.254 0.155 0.518 0.155 0.786 0 1.192-0.97 2.16-2.161 2.16s-2.16-0.968-2.16-2.16c0-0.331 0.08-0.658 0.23-0.96-0.094-0.084-0.164-0.191-0.202-0.315l-3.029-11.293h-3.184c-0.379 0-0.688-0.307-0.688-0.687 0-0.379 0.309-0.687 0.688-0.687h3.712c0.24 0 0.458 0.128 0.581 0.332l0.027-0.003 0.052 0.167 0.657 2.451h15.588c0.375 0 0.681 0.301 0.688 0.675h0.007l-0.025 0.173-2.042 9.184-0.068-0.067c-0.021 0.024-0.043 0.046-0.066 0.068 0.152 0.304 0.231 0.633 0.231 0.962 0 1.192-0.969 2.16-2.16 2.16zm0-2.946c-0.433 0-0.786 0.352-0.786 0.786s0.353 0.786 0.786 0.786c0.434 0 0.786-0.352 0.786-0.786-0.001-0.434-0.353-0.786-0.786-0.786zm-8.837 0c-0.433 0-0.785 0.352-0.785 0.786s0.353 0.786 0.785 0.786c0.433 0 0.786-0.352 0.786-0.786s-0.353-0.786-0.786-0.786zm9.757-1.374l0.352-1.571h-1.802l-0.175 1.571h1.625zm-3.009 0l0.176-1.571h-1.818v1.571h1.642zm-3.017 0v-1.571h-1.818l0.176 1.571h1.642zm-3.026 0l-0.175-1.571h-1.897l0.419 1.571h1.653zm9.708-2.945l0.348-1.572h-2.128l-0.174 1.572h1.954zm-3.337 0l0.175-1.572h-2.145v1.572h1.97zm-3.345 0v-1.572h-2.146l0.173 1.572h1.973zm-3.352 0l-0.173-1.572h-2.362l0.42 1.572h2.115zm10.69-2.945l0.348-1.572h-2.457l-0.175 1.572h2.284zm-3.665 0l0.174-1.572h-2.472v1.572h2.298zm-3.673 0v-1.572h-2.471l0.173 1.572h2.298zm-3.681 0l-0.175-1.572h-2.823l0.423 1.572h2.575z" fill="#5C0D04"/></g></svg><svg xmlns:xlink="http://www.w3.org/1999/xlink" xml:space="preserve" height="22" width="22" version="1.1" y="88" x="0px" viewBox="0 0 22 22" enable-background="new 0 0 22 22" id="cheesecake-17"><g id="cheesecake-17-Layer_1">		<path d="m13.291 0.239c-0.227-0.048-0.454-0.072-0.68-0.072-0.895 0.001-1.753 0.364-2.393 0.996-2.16 2.139-7.255 7.26-9.224 9.24-0.276 0.279-0.488 0.603-0.652 0.95-0.019 0.032-0.039 0.061-0.052 0.097-0.186 0.43-0.29 0.894-0.29 1.372v5.741c0 1.896 1.542 3.271 3.438 3.271h15.125c1.896 0 3.438-1.375 3.438-3.271v-7.563c-0.001-5.281-3.741-9.706-8.71-10.761zm7.334 18.324c0 1.129-0.933 1.896-2.063 1.896h-15.124c-1.13 0-2.063-0.766-2.063-1.896v-5.741c0-0.153 0.021-0.613 0.053-0.613h4.072v0.854c0 1.139 0.924 2.062 2.063 2.063 1.14-0.001 2.063-0.924 2.063-2.063v-0.854h11v6.354zm-11.687-7.729c-0.181 0-0.358 0.157-0.485 0.285-0.129 0.128-0.202 0.389-0.202 0.569v1.375c0 0.379-0.308 0.687-0.688 0.688-0.379 0-0.688-0.308-0.688-0.688v-1.375c0-0.181-0.073-0.441-0.201-0.569-0.128-0.127-0.306-0.285-0.486-0.285h-3.847c2.174-2.063 6.816-6.769 8.846-8.776 0.388-0.385 0.906-0.558 1.424-0.558 0.132 0 0.263-0.049 0.394-0.021 4.341 0.921 7.622 5.23 7.62 9.355h-11.687z" fill="#5C0D04"/>		<rect y="15.739" x="1.375" height="1.375" width="19.25" fill="#FF6B6F"/></g></svg><svg viewBox="0 0 18.52 22" width="22" height="22" id="comp" y="110"><defs><style>.cls-1{fill:#5c0d04;}.cls-2{fill:#ff6b6f;}</style></defs><title>comp</title><g id="comp-&#x421;&#x43B;&#x43E;&#x439;_2" data-name="&#x421;&#x43B;&#x43E;&#x439; 2"><g id="comp-Layer_1" data-name="Layer 1"><path class="cls-1" d="m3.12 0a3.12 3.12 0 0 0 -3.12 3.12v15.76a3.12 3.12 0 0 0 3.12 3.12h14.7a0.7 0.7 0 0 0 0.7 -0.7v-20.6a0.7 0.7 0 0 0 -0.7 -0.7zm0 1.4h14v14.37h-14a3.1 3.1 0 0 0 -1.72 0.52v-13.17a1.72 1.72 0 0 1 1.72 -1.72zm14 19.21h-14a1.72 1.72 0 1 1 0 -3.44h14v1h-11a0.7 0.7 0 1 0 0 1.4h11z"/><path class="cls-2" d="m6.47 9.79v2.64a0.7 0.7 0 0 0 0.7 0.7h4.19a0.7 0.7 0 0 0 0.7 -0.7v-2.64a2.49 2.49 0 0 0 -0.82 -4.79 2.49 2.49 0 0 0 -4 0 2.49 2.49 0 0 0 -0.81 4.79zm0.93-3.4h0.16a0.7 0.7 0 0 0 0.72 -0.39 1.09 1.09 0 0 1 2 0 0.7 0.7 0 0 0 0.73 0.38h0.16a1.09 1.09 0 0 1 0.14 2.17 0.7 0.7 0 0 0 -0.61 0.69v2.48h-2.84v-2.41a0.7 0.7 0 0 0 -0.61 -0.74 1.09 1.09 0 0 1 0.14 -2.17z"/></g></g></svg><svg xmlns:xlink="http://www.w3.org/1999/xlink" xml:space="preserve" height="22" width="22" version="1.1" y="132" x="0px" viewBox="0 0 22 22" enable-background="new 0 0 22 22" id="cookie-18"><g id="cookie-18-Layer_1">	<g fill="#5C0D04">		<path d="m21.805 8.965c-0.057-0.295-0.296-0.52-0.595-0.556s-0.584 0.126-0.708 0.4c-0.218 0.482-0.696 0.816-1.251 0.816-0.615 0-1.135-0.414-1.309-0.984-0.104-0.349-0.462-0.553-0.815-0.471-0.217 0.051-0.423 0.08-0.627 0.08-1.515-0.003-2.747-1.235-2.75-2.75 0-0.204 0.029-0.409 0.08-0.626 0.084-0.354-0.123-0.712-0.471-0.816-0.57-0.173-0.985-0.692-0.984-1.308-0.001-0.555 0.334-1.033 0.815-1.25 0.274-0.124 0.436-0.411 0.4-0.708-0.036-0.3-0.26-0.54-0.556-0.595-0.655-0.124-1.334-0.197-2.034-0.197-6.067 0.001-10.998 4.934-11 11 0.002 6.067 4.933 11 11 11 6.068 0 10.999-4.932 11-11 0-0.699-0.073-1.378-0.195-2.035zm-4.002 8.838c-1.745 1.745-4.147 2.823-6.803 2.823s-5.057-1.078-6.803-2.823c-1.744-1.745-2.822-4.148-2.822-6.803s1.078-5.058 2.822-6.803c1.746-1.743 4.148-2.821 6.803-2.821 0.124 0 0.245 0.013 0.368 0.018-0.229 0.4-0.367 0.861-0.368 1.356 0.001 1.026 0.571 1.907 1.4 2.376-0.013 0.122-0.025 0.246-0.025 0.374 0.002 2.276 1.849 4.124 4.125 4.126 0.129 0 0.252-0.013 0.374-0.026 0.47 0.83 1.349 1.398 2.376 1.401 0.496 0 0.956-0.138 1.356-0.368 0.006 0.122 0.019 0.243 0.019 0.368 0 2.654-1.078 5.057-2.822 6.802z"/>		<path d="m9.625 5.5c0 0.76-0.615 1.375-1.375 1.375-0.759 0-1.375-0.615-1.375-1.375 0-0.759 0.616-1.374 1.375-1.374 0.76 0 1.375 0.615 1.375 1.374z"/>		<path d="m6.875 11c0 0.759-0.615 1.375-1.375 1.375-0.759 0-1.375-0.615-1.375-1.375s0.616-1.374 1.375-1.374c0.76 0 1.375 0.615 1.375 1.374z"/>		<path d="m13.75 16.5c0 0.76-0.615 1.375-1.375 1.375-0.759 0-1.375-0.615-1.375-1.375 0-0.759 0.616-1.374 1.375-1.374 0.76 0 1.375 0.615 1.375 1.374z"/>		<path d="m12.375 11.688c0 0.38-0.308 0.687-0.688 0.687s-0.687-0.307-0.687-0.687c0-0.379 0.308-0.688 0.688-0.688s0.687 0.309 0.687 0.688z"/>		<path d="m17.875 14.438c0 0.379-0.308 0.688-0.688 0.688s-0.687-0.309-0.687-0.688c0-0.38 0.308-0.688 0.688-0.688s0.687 0.308 0.687 0.688z"/>		<path d="m8.25 15.813c0 0.38-0.308 0.688-0.688 0.688s-0.688-0.308-0.688-0.688c0-0.379 0.308-0.687 0.688-0.687s0.688 0.308 0.688 0.687z"/>	</g></g></svg><svg xmlns:xlink="http://www.w3.org/1999/xlink" xml:space="preserve" height="22" width="22" version="1.1" y="154" x="0px" viewBox="0 0 22 22" enable-background="new 0 0 22 22" id="cupcake-22"><g id="cupcake-22-Layer_1">		<path d="m19.25 9.625h-0.126c-0.502-2.993-2.62-5.438-5.421-6.408 0.027-0.153 0.047-0.308 0.047-0.467-0.003-1.52-1.229-2.747-2.75-2.75-1.52 0.003-2.747 1.23-2.75 2.75 0 0.159 0.02 0.314 0.047 0.468-2.802 0.97-4.918 3.415-5.421 6.408h-0.126c-1.52 0.002-2.747 1.229-2.75 2.749 0.003 1.52 1.23 2.75 2.75 2.75h0.124l1.044 5.216c0.192 0.967 1.038 1.659 2.022 1.659h10.12c0.982 0 1.829-0.692 2.022-1.658l1.043-5.216h0.124c1.521 0 2.747-1.23 2.75-2.75-0.002-1.521-1.228-2.748-2.749-2.751zm-8.25-8.249c0.763 0 1.374 0.612 1.375 1.374 0 0.215-0.054 0.418-0.148 0.591l-0.02 0.039c-0.202 0.431-0.663 0.746-1.207 0.745-0.544 0-1.004-0.314-1.206-0.746l-0.021-0.038c-0.094-0.173-0.148-0.376-0.148-0.591 0.001-0.762 0.612-1.374 1.375-1.374zm-2.75 19.249h-2.31c-0.328 0-0.61-0.232-0.675-0.554l-0.989-4.946h3.974v5.5zm4.125 0h-2.75v-5.5h2.75v5.5zm4.359-0.553c-0.063 0.322-0.347 0.554-0.674 0.554h-2.31v-5.5h3.974l-0.99 4.946zm2.516-6.322h-16.5c-0.763 0-1.374-0.612-1.375-1.375 0.001-0.762 0.612-1.375 1.375-1.375h0.729c0.356 0 0.652-0.271 0.685-0.626 0.245-2.767 2.156-5.073 4.708-5.9 0.496 0.626 1.266 1.026 2.128 1.026s1.632-0.4 2.128-1.026c2.552 0.827 4.463 3.133 4.709 5.9 0.031 0.355 0.327 0.626 0.684 0.626h0.729c0.763 0 1.374 0.612 1.375 1.375-0.001 0.763-0.612 1.375-1.375 1.375z" fill="#5C0D04"/>		<circle cy="2.626" cx="11" r="1.583" fill="#FF6B6F"/></g></svg><svg xmlns:xlink="http://www.w3.org/1999/xlink" xml:space="preserve" height="22" width="22" version="1.1" y="176" x="0px" viewBox="0 0 22 22" enable-background="new 0 0 22 22" id="eclair-21"><g id="eclair-21-Layer_1">			<defs>				<rect id="eclair-21-SVGID_57_" y="-.026" width="22" height="22.051"/>			</defs>			<clipPath id="eclair-21-SVGID_2_">				<use overflow="visible" xlink:href="#eclair-21-SVGID_57_"/>			</clipPath>			<path fill="#5C0D04" d="m20.373 1.601c-1.071-1.073-2.485-1.61-3.893-1.609-1.407-0.001-2.82 0.537-3.893 1.611l-10.977 10.977c-1.073 1.071-1.61 2.484-1.61 3.892 0 1.407 0.537 2.82 1.61 3.893 1.072 1.072 2.485 1.611 3.893 1.609 1.407 0.001 2.82-0.538 3.893-1.61l10.977-10.978c1.073-1.072 1.611-2.486 1.61-3.893 0.001-1.406-0.537-2.82-1.61-3.892zm-0.973 6.813l-10.978 10.978c-0.806 0.804-1.859 1.205-2.919 1.206-1.061-0.001-2.114-0.402-2.92-1.206-0.805-0.807-1.206-1.86-1.206-2.92s0.4-2.113 1.206-2.92l10.979-10.978c0.806-0.806 1.858-1.206 2.919-1.207 1.061 0 2.114 0.402 2.92 1.207 0.805 0.806 1.206 1.86 1.207 2.92-0.002 1.061-0.402 2.114-1.208 2.92z" clip-path="url(#eclair-21-SVGID_2_)"/>		<path d="m18.056 3.597l0.003-0.008c-0.235-0.079-0.477-0.117-0.71-0.117-1.224 0.007-2.211 0.995-2.219 2.217 0 0.234 0.038 0.475 0.117 0.712l0.046 0.276c0 0.224-0.094 0.434-0.251 0.593-0.159 0.157-0.369 0.25-0.594 0.25l-0.276-0.045c-0.235-0.08-0.477-0.117-0.71-0.117-1.224 0.007-2.211 0.994-2.219 2.218 0 0.234 0.038 0.475 0.117 0.71l0.046 0.276c0 0.225-0.094 0.434-0.252 0.592s-0.368 0.252-0.593 0.252l-0.276-0.046c-0.235-0.079-0.477-0.117-0.711-0.117-1.223 0.008-2.21 0.995-2.218 2.218 0 0.233 0.038 0.476 0.117 0.71l0.047 0.279c0 0.223-0.094 0.433-0.252 0.592s-0.368 0.252-0.593 0.252l-0.275-0.048c-0.235-0.078-0.477-0.117-0.711-0.117-1.223 0.008-2.21 0.995-2.218 2.219 0 0.234 0.038 0.474 0.117 0.71 0.094 0.281 0.354 0.47 0.651 0.47 0.379 0 0.687-0.307 0.687-0.687 0-0.076-0.02-0.146-0.043-0.215l0.009-0.002-0.046-0.276c0-0.225 0.093-0.434 0.251-0.593 0.159-0.158 0.369-0.251 0.593-0.251l0.276 0.048h0.001c0.235 0.078 0.476 0.116 0.71 0.115 1.223-0.008 2.211-0.995 2.218-2.217 0-0.235-0.037-0.476-0.116-0.712l-0.046-0.276c0-0.224 0.093-0.434 0.251-0.593 0.159-0.158 0.369-0.251 0.593-0.251l0.276 0.046h0.001c0.235 0.078 0.476 0.116 0.71 0.116 1.223-0.007 2.211-0.995 2.218-2.217 0-0.235-0.037-0.476-0.116-0.711l-0.046-0.278c0-0.224 0.093-0.435 0.251-0.593 0.159-0.158 0.369-0.251 0.593-0.251l0.276 0.047h0.001c0.235 0.078 0.476 0.117 0.71 0.117 1.223-0.008 2.211-0.995 2.219-2.218 0-0.234-0.038-0.474-0.117-0.711l-0.046-0.276c0-0.224 0.094-0.434 0.251-0.592 0.156-0.158 0.366-0.251 0.591-0.251l0.275 0.046 0.218 0.036c0.379 0 0.687-0.308 0.687-0.688-0.001-0.304-0.2-0.552-0.473-0.643z" fill="#FF6B6F"/></g></svg><svg xmlns:xlink="http://www.w3.org/1999/xlink" xml:space="preserve" height="22" width="22" version="1.1" y="198" x="0px" viewBox="0 0 22 22" enable-background="new 0 0 22 22" id="fav-11"><g id="fav-11-Layer_1">	<path d="m11 22c-1.095 0-10.219-8.199-10.95-14.629l0.003-0.001c-0.031-0.121-0.053-0.347-0.053-0.79 0-3.628 2.952-6.58 6.581-6.58 1.643 0 3.205 0.606 4.419 1.711 1.214-1.105 2.776-1.711 4.419-1.711 3.629 0 6.581 2.952 6.581 6.58 0 0.106-0.003 0.551-0.056 0.782h0.006c-0.723 6.434-9.853 14.638-10.95 14.638zm-4.419-20.624c-2.87 0-5.205 2.335-5.205 5.204 0 0.319 0.036 0.588 0.037 0.593 0.549 5.052 7.556 12.016 9.587 13.335 2.031-1.319 9.037-8.281 9.587-13.322 0.001-0.011 0.038-0.281 0.038-0.606 0-2.869-2.335-5.204-5.205-5.204-1.348 0-2.627 0.516-3.603 1.454l-0.817 0.785-0.817-0.785c-0.975-0.937-2.255-1.454-3.602-1.454z" fill="#5C0D04"/></g></svg><svg xmlns:xlink="http://www.w3.org/1999/xlink" xml:space="preserve" height="22" width="22" version="1.1" y="220" x="0px" viewBox="0 0 22 22" enable-background="new 0 0 22 22" id="home-07"><g id="home-07-Layer_1">			<path d="m3.634 22c-0.379 0-0.688-0.308-0.688-0.687v-11.6l-1.772 1.773c-0.127 0.13-0.301 0.201-0.486 0.201-0.379 0.001-0.688-0.308-0.688-0.687 0-0.184 0.072-0.356 0.202-0.485l10.312-10.312c0.13-0.131 0.303-0.203 0.486-0.203s0.356 0.072 0.486 0.203l2.264 2.264v-0.797c0-0.379 0.309-0.688 0.688-0.688h2.946c0.379 0 0.688 0.308 0.688 0.688v5.118l3.728 3.727c0.128 0.129 0.2 0.301 0.2 0.485 0 0.379-0.309 0.688-0.688 0.688-0.186 0-0.359-0.071-0.487-0.202l-1.771-1.772v11.599c0 0.379-0.309 0.687-0.688 0.687h-14.732zm9.134-1.375v-7.464h-3.536v7.464h3.536zm4.91-0.03v-12.257l-6.678-6.678-6.678 6.678v12.256h3.535v-8.122c0-0.379 0.309-0.688 0.688-0.688h4.91c0.379 0 0.688 0.308 0.688 0.688v8.122h3.535zm-0.982-15.182v-3.056h-1.571v1.485l1.571 1.571zm-5.205 12.658c-0.379 0-0.688-0.308-0.688-0.688s0.309-0.688 0.688-0.688 0.688 0.308 0.688 0.688-0.309 0.688-0.688 0.688z" fill="#5C0D04"/>			<rect y="13.161" x="9.232" height="7.464" width="3.535" fill="#FF6B6F"/>		<circle cy="17.375" cx="11.523" r=".687" fill="#5C0D04"/></g></svg><svg xmlns:xlink="http://www.w3.org/1999/xlink" xml:space="preserve" height="22" width="22" version="1.1" y="242" x="0px" viewBox="0 0 22 22" enable-background="new 0 0 22 22" id="macaroon-19"><g id="macaroon-19-Layer_1">	<path d="m21.448 12.186c0.241-0.335 0.392-0.739 0.392-1.184 0-0.434-0.136-0.835-0.364-1.167 0.005-0.005 0.007-0.014 0.013-0.021h-0.022c0.328-0.365 0.533-0.843 0.533-1.372 0-1.899-1.539-3.438-3.438-3.438h-15.124c-1.899 0.001-3.437 1.539-3.438 3.438 0 0.529 0.205 1.007 0.533 1.372h-0.026c0.006 0.007 0.008 0.016 0.013 0.02-0.228 0.332-0.364 0.734-0.364 1.167 0 0.445 0.15 0.849 0.392 1.184h-0.015c-0.328 0.366-0.533 0.844-0.533 1.373 0 1.898 1.539 3.438 3.438 3.438h15.125c1.899 0 3.437-1.539 3.438-3.438 0-0.529-0.205-1.007-0.533-1.373h-0.02zm-18.01-5.807h15.125c1.139 0.002 2.061 0.924 2.063 2.063 0 0.379-0.308 0.686-0.688 0.688h-17.875c-0.38-0.002-0.687-0.309-0.688-0.688 0.002-1.139 0.924-2.061 2.063-2.063zm-1.907 4.623c0-0.38 0.308-0.687 0.688-0.688h17.875c0.379 0.001 0.687 0.308 0.688 0.688-0.001 0.379-0.308 0.687-0.688 0.687h-17.875c-0.38-0.001-0.687-0.308-0.688-0.687zm17.032 4.62h-15.125c-1.139-0.003-2.061-0.925-2.063-2.063 0-0.379 0.308-0.687 0.688-0.688h17.875c0.379 0.001 0.687 0.309 0.688 0.688-0.003 1.138-0.925 2.06-2.063 2.063z" fill="#5C0D04"/></g></svg><svg viewBox="0 0 22.4 16.4" width="22" height="22" id="mail" y="264"><defs><style>.cls-1{fill:#5c0d04;}</style></defs><title>mail</title><g id="mail-&#x421;&#x43B;&#x43E;&#x439;_2" data-name="&#x421;&#x43B;&#x43E;&#x439; 2"><g id="mail-Layer_1" data-name="Layer 1"><path class="cls-1" d="m2.2 16.4a2.2 2.2 0 0 1 -2.2 -2.2v-12a2.2 2.2 0 0 1 2.2 -2.2h18a2.2 2.2 0 0 1 2.2 2.2v12a2.2 2.2 0 0 1 -2.2 2.2zm17.91-1.4-5.81-5.81l-1.58 1.57a2.16 2.16 0 0 1 -3.05 0l-1.57-1.57-5.81 5.81zm0.89-1.09v-11.42l-5.71 5.71zm-19.6 0l5.71-5.71-5.71-5.71zm9.26-4.13a0.76 0.76 0 0 0 1.07 0l8.38-8.38h-17.82z"/></g></g></svg><svg viewBox="0 0 16.4 22" width="22" height="22" id="map_point" y="286"><defs><style>.cls-1{fill:#5c0d04;}.cls-2{fill:#ff6b6f;}</style></defs><title>map_point</title><g id="map_point-&#x421;&#x43B;&#x43E;&#x439;_2" data-name="&#x421;&#x43B;&#x43E;&#x439; 2"><g id="map_point-Layer_1" data-name="Layer 1"><path class="cls-1" d="m8.2 0a8.13 8.13 0 0 0 -8.2 8c0 6.4 7.73 13.57 8.06 13.87l0.14 0.13 0.14-0.13c0.33-0.3 8.06-7.47 8.06-13.87a8.13 8.13 0 0 0 -8.2 -8zm0 20c-1-0.93-6.79-6.7-6.79-12a6.73 6.73 0 0 1 6.79 -6.63 6.74 6.74 0 0 1 6.8 6.63c0 5.3-5.83 11.07-6.8 12z"/><path class="cls-2" d="m8.2 3.92a4.16 4.16 0 0 0 -4.2 4.08 4.16 4.16 0 0 0 4.2 4.11 4.16 4.16 0 0 0 4.21 -4.11 4.16 4.16 0 0 0 -4.21 -4.08zm0 6.85a2.74 2.74 0 1 1 2.8 -2.77 2.77 2.77 0 0 1 -2.8 2.77z"/></g></g></svg><svg xmlns:xlink="http://www.w3.org/1999/xlink" xml:space="preserve" height="22" width="22" version="1.1" y="308" x="0px" viewBox="0 0 22 22" enable-background="new 0 0 22 22" id="menu-14"><g id="menu-14-Layer_1">	<g fill="#5C0D04">		<path d="m19.839 15.713h-17.678c-1.191 0-2.161 0.97-2.161 2.162s0.97 2.161 2.161 2.161h17.679c1.191 0 2.161-0.969 2.161-2.161s-0.971-2.162-2.162-2.162zm0 2.947h-17.678c-0.433 0-0.785-0.352-0.785-0.785 0-0.434 0.353-0.786 0.785-0.786h17.679c0.433 0 0.785 0.353 0.785 0.786s-0.353 0.785-0.786 0.785z"/>		<path d="m19.839 8.838h-17.678c-1.191 0-2.161 0.971-2.161 2.161 0 1.191 0.97 2.161 2.161 2.161h17.679c1.191 0 2.161-0.97 2.161-2.161-0.001-1.19-0.971-2.161-2.162-2.161zm0 2.947h-17.678c-0.433 0-0.785-0.352-0.785-0.786s0.353-0.785 0.785-0.785h17.679c0.433 0 0.785 0.352 0.785 0.785s-0.353 0.786-0.786 0.786z"/>		<path d="m2.161 6.285h17.679c1.19 0 2.16-0.97 2.16-2.16s-0.97-2.16-2.161-2.16h-17.678c-1.191 0-2.161 0.969-2.161 2.16s0.97 2.16 2.161 2.16zm0-2.946h17.679c0.433 0 0.785 0.352 0.785 0.786 0 0.433-0.353 0.785-0.785 0.785h-17.679c-0.433 0-0.785-0.352-0.785-0.785-0.001-0.434 0.352-0.786 0.785-0.786z"/>	</g></g></svg><svg xmlns:xlink="http://www.w3.org/1999/xlink" xml:space="preserve" height="22" width="22" version="1.1" y="330" x="0px" viewBox="0 0 22 22" enable-background="new 0 0 22 22" id="more-23"><g id="more-23-Layer_1">	<path d="m19.347 13.7c-1.462 0-2.652-1.212-2.652-2.701s1.189-2.7 2.652-2.7c1.462 0 2.652 1.211 2.652 2.7s-1.19 2.701-2.652 2.701zm0-4c-0.704 0-1.277 0.583-1.277 1.299s0.573 1.3 1.277 1.3 1.276-0.583 1.276-1.3-0.572-1.299-1.276-1.299zm-8.348 4c-1.462 0-2.652-1.212-2.652-2.701s1.189-2.7 2.652-2.7c1.462 0 2.652 1.211 2.652 2.7s-1.19 2.701-2.652 2.701zm0-4c-0.704 0-1.276 0.583-1.276 1.299s0.572 1.3 1.276 1.3 1.276-0.583 1.276-1.3-0.572-1.299-1.276-1.299zm-8.348 4c-1.462 0-2.652-1.212-2.652-2.701s1.19-2.7 2.652-2.7c1.462 0 2.652 1.211 2.652 2.7s-1.19 2.701-2.652 2.701zm0-4c-0.704 0-1.276 0.583-1.276 1.3s0.572 1.3 1.276 1.3 1.277-0.583 1.277-1.3-0.573-1.3-1.277-1.3z" fill="#5C0D04"/></g></svg><svg viewBox="0 0 22.4 22.4" width="22" height="22" id="nut-val" y="352"><defs><style>.cls-1{fill:#5c0d04;}.cls-2{fill:#ff6b6f;}</style></defs><title>nut-val</title><g id="nut-val-&#x421;&#x43B;&#x43E;&#x439;_2" data-name="&#x421;&#x43B;&#x43E;&#x439; 2"><g id="nut-val-Layer_1" data-name="Layer 1"><path class="cls-1" d="m11.2 22.4a11.2 11.2 0 1 1 11.2 -11.2 11.21 11.21 0 0 1 -11.2 11.2zm0-21a9.83 9.83 0 1 0 9.8 9.8 9.84 9.84 0 0 0 -9.8 -9.83z"/><path class="cls-2" d="m11.2 19.2a4.18 4.18 0 0 1 -2.85 -1.12 4.2 4.2 0 0 1 -4 -4 4.2 4.2 0 0 1 0 -5.7 4.2 4.2 0 0 1 4 -4 4.2 4.2 0 0 1 5.7 0 4.2 4.2 0 0 1 4 4 4.2 4.2 0 0 1 0 5.7 4.2 4.2 0 0 1 -4 4 4.17 4.17 0 0 1 -2.85 1.12zm-2.6-2.31a0.61 0.61 0 0 1 0.43 0.18 3 3 0 0 0 4.34 0 0.6 0.6 0 0 1 0.43 -0.19 3 3 0 0 0 2.2 -0.88 3 3 0 0 0 0.88 -2.19 0.6 0.6 0 0 1 0.18 -0.45 3 3 0 0 0 0 -4.34 0.6 0.6 0 0 1 -0.18 -0.45 3 3 0 0 0 -3 -3.07 0.66 0.66 0 0 1 -0.51 -0.18 3 3 0 0 0 -4.37 0.01 0.6 0.6 0 0 1 -0.43 0.19 3 3 0 0 0 -2.2 0.88 3 3 0 0 0 -0.88 2.19 0.6 0.6 0 0 1 -0.16 0.41 3 3 0 0 0 0 4.34 0.6 0.6 0 0 1 0.18 0.45 3 3 0 0 0 3 3.07h0.09z"/><path class="cls-1" d="m11.2 15.43a4.23 4.23 0 1 1 4.23 -4.23 4.24 4.24 0 0 1 -4.23 4.23zm0-7.1a2.86 2.86 0 1 0 2.86 2.86 2.87 2.87 0 0 0 -2.86 -2.85z"/></g></g></svg><svg viewBox="0 0 22.4 22.4" width="22" height="22" id="pass" y="374"><defs><style>.cls-1{fill:#5c0d04;}</style></defs><title>pass</title><g id="pass-&#x421;&#x43B;&#x43E;&#x439;_2" data-name="&#x421;&#x43B;&#x43E;&#x439; 2"><g id="pass-Layer_1" data-name="Layer 1"><path class="cls-1" d="m17.7 22.4a0.7 0.7 0 0 1 -0.7 -0.7v-1.3h-1.3a0.7 0.7 0 0 1 -0.7 -0.7v-1.3h-1.3a0.7 0.7 0 0 1 -0.49 -0.21l-2.77-2.78-0.34 0.34a2.2 2.2 0 0 1 -3.11 0l-6.35-6.35a2.2 2.2 0 0 1 0 -3.11l5.65-5.65a2.2 2.2 0 0 1 3.11 0l6.35 6.36a2.2 2.2 0 0 1 0 3.11l-0.32 0.32 6.76 6.78a0.7 0.7 0 0 1 0.21 0.49v4a0.7 0.7 0 0 1 -0.7 0.7zm3.3-1.4v-3l-7.06-7.07a0.69 0.69 0 0 1 -0.21 -0.49 0.7 0.7 0 0 1 0.27 -0.54l0.78-0.79a0.8 0.8 0 0 0 0 -1.13l-6.37-6.35a0.8 0.8 0 0 0 -1.13 0l-5.65 5.65a0.8 0.8 0 0 0 0 1.13l6.37 6.35a0.8 0.8 0 0 0 1.13 0l0.8-0.76a0.67 0.67 0 0 1 0.51 -0.23 0.69 0.69 0 0 1 0.49 0.21l3.07 3.02h1.7a0.7 0.7 0 0 1 0.7 0.7v1.3h1.3a0.7 0.7 0 0 1 0.7 0.7v1.3zm-13.79-11.59a2.2 2.2 0 1 1 2.2 -2.2 2.2 2.2 0 0 1 -2.2 2.2zm0-3a0.8 0.8 0 1 0 0.8 0.8 0.8 0.8 0 0 0 -0.8 -0.8z"/></g></g></svg><svg viewBox="0 0 22.4 22" width="22" height="22" id="phone" y="396"><defs><style>.cls-1{fill:#5c0d04;}</style></defs><title>phone</title><g id="phone-&#x421;&#x43B;&#x43E;&#x439;_2" data-name="&#x421;&#x43B;&#x43E;&#x439; 2"><g id="phone-Layer_1" data-name="Layer 1"><path class="cls-1" d="m17 22a5.48 5.48 0 0 1 -2.2 -0.46h-0.14a31.59 31.59 0 0 1 -14.15 -13.88l-0.06-0.13a5.23 5.23 0 0 1 -0.45 -2.18c0-2.96 2.57-5.35 4.7-5.35a1.71 1.71 0 0 1 1.2 0.49 1.73 1.73 0 0 1 0.23 0.29l3.29 4.15a1.63 1.63 0 0 1 0.14 2.16l-1.1 1.07-0.12 0.1a0.78 0.78 0 0 0 -0.29 0.6 0.79 0.79 0 0 0 0.35 0.65l0.25 0.17-0.11 0.07a18.7 18.7 0 0 0 3.93 3.84v-0.06l0.19 0.2a0.81 0.81 0 0 0 0.65 0.34 0.79 0.79 0 0 0 0.69 -0.27l0.16-0.18 1-1a1.7 1.7 0 0 1 2.24 0.13l4.21 3.25a1.54 1.54 0 0 1 0.29 0.22 1.65 1.65 0 0 1 0.49 1v0.2c0.01 2.05-2.39 4.58-5.39 4.58zm-12.3-20.62c-1.3 0-3.3 1.71-3.3 4a3.9 3.9 0 0 0 0.39 1.7 1.22 1.22 0 0 1 0.08 0.2 30.23 30.23 0 0 0 13.19 12.9l0.16 0.06a4.07 4.07 0 0 0 1.73 0.39c2.24 0 4-1.89 4-3.16a0.4 0.4 0 0 0 -0.1 -0.3l-0.16-0.11-4.23-3.23-0.12-0.1a0.31 0.31 0 0 0 -0.21 -0.08 0.26 0.26 0 0 0 -0.14 0l-0.99 1.12a2.3 2.3 0 0 1 -1.6 0.68 2.21 2.21 0 0 1 -1.52 -0.6 20 20 0 0 1 -4.55 -4.45 2.22 2.22 0 0 1 -0.63 -1.52 2.16 2.16 0 0 1 0.7 -1.58l1.12-1.1a0.52 0.52 0 0 0 0 -0.1 0.29 0.29 0 0 0 -0.09 -0.21l-0.1-0.11-3.33-4.17v-0.09a0.31 0.31 0 0 0 -0.3 -0.14z"/></g></g></svg><svg xmlns:xlink="http://www.w3.org/1999/xlink" xml:space="preserve" height="22" width="22" version="1.1" y="418" x="0px" viewBox="0 0 22 22" enable-background="new 0 0 22 22" id="pie-20"><g id="pie-20-Layer_1">		<g fill="#5C0D04">			<path d="m11 3.539c-4.114 0-7.461 3.348-7.461 7.461s3.347 7.462 7.461 7.462c4.113 0 7.461-3.348 7.461-7.461s-3.348-7.462-7.461-7.462zm0 13.487c-3.323 0-6.026-2.703-6.026-6.026s2.703-6.026 6.026-6.026c3.322 0 6.026 2.703 6.026 6.026s-2.704 6.026-6.026 6.026z"/>			<path d="m20.62 8.484c-0.371-0.396-0.722-0.771-0.862-1.112-0.153-0.368-0.175-0.925-0.195-1.463-0.036-0.927-0.076-1.978-0.784-2.687-0.709-0.708-1.76-0.749-2.687-0.785-0.539-0.02-1.096-0.042-1.465-0.195-0.34-0.142-0.715-0.492-1.11-0.863-0.691-0.646-1.473-1.379-2.517-1.379-1.045 0-1.827 0.733-2.517 1.38-0.396 0.371-0.77 0.721-1.111 0.863-0.368 0.153-0.926 0.174-1.464 0.195-0.928 0.035-1.978 0.076-2.686 0.784-0.709 0.708-0.749 1.76-0.784 2.687-0.022 0.538-0.043 1.095-0.196 1.463-0.14 0.341-0.492 0.716-0.863 1.112-0.647 0.69-1.379 1.471-1.379 2.516s0.732 1.826 1.379 2.516c0.371 0.396 0.723 0.771 0.863 1.111 0.152 0.368 0.174 0.925 0.195 1.464 0.035 0.927 0.075 1.978 0.784 2.686 0.708 0.708 1.759 0.75 2.687 0.784 0.538 0.021 1.096 0.043 1.464 0.196 0.341 0.141 0.715 0.491 1.111 0.863 0.69 0.647 1.472 1.38 2.517 1.38 1.044 0 1.826-0.733 2.517-1.379 0.396-0.372 0.771-0.722 1.11-0.863 0.369-0.153 0.926-0.175 1.465-0.195 0.927-0.035 1.978-0.076 2.686-0.785 0.709-0.708 0.749-1.759 0.785-2.686 0.021-0.539 0.042-1.096 0.194-1.464 0.142-0.341 0.492-0.715 0.863-1.111 0.647-0.69 1.38-1.471 1.38-2.517s-0.733-1.826-1.38-2.516zm-1.047 4.052c-0.442 0.473-0.9 0.96-1.142 1.542-0.251 0.606-0.277 1.293-0.303 1.959-0.027 0.696-0.055 1.416-0.365 1.727-0.312 0.311-1.031 0.338-1.728 0.366-0.665 0.025-1.353 0.052-1.959 0.304-0.581 0.24-1.069 0.699-1.542 1.142-0.521 0.487-1.058 0.991-1.535 0.991s-1.016-0.504-1.536-0.991c-0.473-0.442-0.961-0.901-1.542-1.142-0.606-0.252-1.294-0.278-1.959-0.304-0.696-0.027-1.416-0.055-1.727-0.366-0.312-0.311-0.339-1.03-0.365-1.727-0.025-0.665-0.052-1.353-0.304-1.959-0.241-0.582-0.698-1.07-1.142-1.542-0.486-0.52-0.989-1.058-0.989-1.536s0.504-1.016 0.991-1.536c0.443-0.472 0.9-0.961 1.142-1.542 0.251-0.606 0.278-1.294 0.304-1.958 0.026-0.697 0.054-1.416 0.365-1.727s1.03-0.339 1.727-0.366c0.664-0.025 1.351-0.051 1.958-0.303 0.581-0.241 1.069-0.699 1.542-1.142 0.52-0.487 1.058-0.991 1.536-0.991s1.015 0.504 1.535 0.991c0.473 0.443 0.961 0.9 1.542 1.142 0.606 0.252 1.294 0.278 1.959 0.303 0.696 0.027 1.416 0.055 1.728 0.366 0.311 0.312 0.338 1.03 0.365 1.727 0.025 0.665 0.052 1.353 0.303 1.958 0.241 0.582 0.699 1.07 1.142 1.542 0.487 0.52 0.991 1.058 0.991 1.536-0.001 0.478-0.504 1.016-0.992 1.536z"/>		</g>		<g fill="#FF6B6F">			<path d="m10.999 9.75c0.073 0 0.147-0.027 0.203-0.085 0.78-0.78 0.78-2.05 0-2.831-0.112-0.112-0.294-0.112-0.406 0-0.376 0.379-0.585 0.88-0.585 1.417 0 0.534 0.209 1.036 0.585 1.414 0.058 0.058 0.131 0.085 0.203 0.085z"/>			<path d="m10.999 15.25c0.073 0 0.147-0.027 0.203-0.085 0.78-0.78 0.78-2.05 0-2.831-0.112-0.112-0.294-0.112-0.406 0-0.376 0.379-0.585 0.88-0.585 1.417 0 0.534 0.209 1.036 0.585 1.414 0.058 0.058 0.131 0.085 0.203 0.085z"/>		</g>		<g fill="#FF6B6F">			<path d="m12.249 11c0 0.073 0.027 0.147 0.085 0.203 0.78 0.781 2.05 0.781 2.831 0 0.112-0.112 0.112-0.294 0-0.406-0.379-0.376-0.881-0.585-1.417-0.585-0.534 0-1.036 0.209-1.414 0.585-0.058 0.057-0.085 0.131-0.085 0.203z"/>			<path d="m6.749 11c0 0.073 0.027 0.147 0.085 0.203 0.78 0.781 2.05 0.781 2.831 0 0.112-0.112 0.112-0.294 0-0.406-0.379-0.376-0.881-0.585-1.417-0.585-0.534 0-1.036 0.209-1.414 0.585-0.058 0.057-0.085 0.131-0.085 0.203z"/>		</g></g></svg><svg widht="22px" viewBox="0 0 22.4 20.41" height="22" width="22" id="present" y="440"><defs><style>.cls-1{fill:#5c0d04;}.cls-2{fill:#ff6b6f;}</style></defs><title>present</title><g id="present-&#x421;&#x43B;&#x43E;&#x439;_2" data-name="&#x421;&#x43B;&#x43E;&#x439; 2"><g id="present-Layer_1" data-name="Layer 1"><path class="cls-1" d="m21.2 4h-3.52a3 3 0 0 0 -0.17 -2.52 3.11 3.11 0 0 0 -2.75 -1.48 4.12 4.12 0 0 0 -2 0.56 4 4 0 0 0 -1.49 1.44h-0.07v0.2-0.05a4 4 0 0 0 -1.52 -1.59 4.12 4.12 0 0 0 -2 -0.56 3.11 3.11 0 0 0 -2.81 1.48 3 3 0 0 0 -0.17 2.52h-3.5a1.2 1.2 0 0 0 -1.2 1.21v2a1.2 1.2 0 0 0 1 1.18v10.82a1.2 1.2 0 0 0 1.2 1.2h18a1.2 1.2 0 0 0 1.2 -1.2v-10.82a1.2 1.2 0 0 0 1 -1.18v-2a1.2 1.2 0 0 0 -1.2 -1.21zm-15.12-1.82a1.72 1.72 0 0 1 1.54 -0.78 2.72 2.72 0 0 1 1.38 0.37 2.56 2.56 0 0 1 1.26 1.61l-0.24 0.63h-3.78a1.73 1.73 0 0 1 -0.16 -1.83zm4.42 16.82h-8.1v-4.6h8.1zm0-6h-8.1v-4.59h4.68c-0.48 0.52-0.82 0.8-0.82 0.8a0.7 0.7 0 0 0 -0.09 1 0.69 0.69 0 0 0 0.35 0.23h0.18a0.7 0.7 0 0 0 0.45 -0.16 14.69 14.69 0 0 0 1.8 -1.87h1.55zm2.91-11.23a2.72 2.72 0 0 1 1.35 -0.38 1.72 1.72 0 0 1 1.54 0.79 1.73 1.73 0 0 1 -0.16 1.82h-3.74c-0.09-0.2-0.17-0.4-0.23-0.53a2.47 2.47 0 0 1 1.24 -1.7zm6.59 17.23h-8.1v-4.6h8.1zm0-6h-8.1v-4.59h1.54a14.72 14.72 0 0 0 1.79 1.88 0.7 0.7 0 0 0 0.45 0.16h0.18a0.7 0.7 0 0 0 0.27 -1.22 11.16 11.16 0 0 1 -0.82 -0.8h4.69z"/><path class="cls-2" d="m21 7v-1.59h-7.91a14.9 14.9 0 0 0 1 1.6z"/><path class="cls-2" d="m12.41 7q-0.27-0.41-0.51-0.84v0.84z"/><path class="cls-2" d="m10.5 7v-0.86c-0.17 0.3-0.34 0.59-0.53 0.87z"/><path class="cls-2" d="m8.25 7a15 15 0 0 0 1 -1.6h-7.85v1.6z"/></g></g></svg><svg xmlns:xlink="http://www.w3.org/1999/xlink" xml:space="preserve" height="22" width="22" version="1.1" y="462" x="0px" viewBox="0 0 22 22" enable-background="new 0 0 22 22" id="profile-12"><g id="profile-12-Layer_1">	<path d="m11 22c-6.065 0-11-4.934-11-11s4.935-11 11-11 11 4.934 11 10.999c0 6.067-4.935 11.001-11 11.001zm-6.094-3.561c1.72 1.41 3.875 2.186 6.094 2.186 2.248 0 4.426-0.795 6.158-2.241-0.637-0.588-1.514-1.312-2.346-1.704-1.244-0.59-1.953-1.235-2.234-2.036-0.219-0.636-0.146-1.329 0.215-2.062 0.177-0.359 0.342-0.657 0.495-0.932 0.598-1.063 0.937-1.667 0.937-4.105 0-2.375-0.887-3.222-1.717-3.222-0.191 0-0.293 0.038-0.479 0.104-0.319 0.113-0.712 0.251-1.515 0.264-1.06 0.019-2.264 0.04-2.264 2.731 0 2.366 0.578 3.407 1.088 4.327 0.172 0.309 0.316 0.574 0.443 0.86 0.729 1.652 0.101 3.107-1.68 3.893-1.348 0.597-1.978 0.895-3.195 1.937zm6.094-17.065c-5.307 0-9.624 4.318-9.624 9.625 0 2.411 0.896 4.708 2.529 6.49 1.431-1.243 2.169-1.595 3.641-2.245 1.111-0.49 1.403-1.113 0.978-2.081-0.098-0.225-0.222-0.448-0.353-0.682-0.6-1.086-1.296-2.345-1.296-5.059 0-4.041 2.535-4.085 3.618-4.104 0.578-0.01 0.82-0.095 1.077-0.186 0.247-0.087 0.517-0.183 0.939-0.183 0.517 0 3.092 0.222 3.092 4.597 0 2.798-0.476 3.647-1.078 4.718-0.178 0.314-0.333 0.592-0.496 0.925-0.197 0.397-0.246 0.724-0.149 1.002 0.145 0.417 0.657 0.836 1.523 1.245 1.062 0.501 2.13 1.41 2.75 1.987 1.597-1.771 2.473-4.043 2.473-6.425 0-5.307-4.317-9.624-9.624-9.624z" fill="#5C0D04"/></g></svg><svg xmlns:xlink="http://www.w3.org/1999/xlink" xml:space="preserve" height="22" width="22" version="1.1" y="484" x="0px" viewBox="0 0 22 22" enable-background="new 0 0 22 22" id="sale-10"><g id="sale-10-Layer_1">				<path d="m5.836 22c-0.19 0-0.374-0.079-0.516-0.221l-5.1-5.13c-0.294-0.296-0.294-0.743 0-1.039 0.475-0.478 0.736-1.112 0.736-1.79 0-0.675-0.261-1.311-0.736-1.788-0.141-0.143-0.22-0.327-0.22-0.519s0.079-0.376 0.22-0.519l10.71-10.773c0.157-0.157 0.316-0.157 0.581-0.157 0.08 0 0.18 0.034 0.286 0.069 0.082 0.028 0.176 0.059 0.224 0.059 0.545 0.506 1.176 0.77 1.849 0.77 0.672 0 1.304-0.264 1.778-0.74 0.141-0.144 0.325-0.222 0.516-0.222 0.19 0 0.374 0.078 0.516 0.221l5.1 5.129c0.141 0.144 0.22 0.329 0.22 0.521s-0.079 0.376-0.22 0.519c-0.475 0.478-0.736 1.113-0.736 1.79s0.261 1.312 0.736 1.789c0.141 0.141 0.22 0.325 0.22 0.518 0 0.192-0.079 0.376-0.22 0.52l-10.71 10.772c-0.118 0.029-0.211 0.06-0.293 0.088-0.106 0.036-0.207 0.069-0.287 0.069s-0.18-0.033-0.286-0.069c-0.082-0.028-0.176-0.059-0.224-0.059-0.538-0.5-1.203-0.77-1.896-0.77-0.691 0-1.32 0.269-1.726 0.735-0.148 0.148-0.331 0.227-0.522 0.227zm2.311-2.476c0.824 0 1.647 0.229 2.328 0.646l9.703-9.758c-0.974-1.405-0.974-3.19 0-4.596l-4.09-4.113c-0.623 0.417-1.413 0.644-2.235 0.644-0.824 0-1.647-0.229-2.328-0.646l-9.706 9.763c0.852 1.401 0.852 3.186 0 4.587l4.094 4.117c0.623-0.416 1.413-0.644 2.234-0.644z" fill="#5C0D04"/>					<path d="m12.275 15.267c-0.201 0-0.564-0.075-0.732-0.581l-2.168-7.57c-0.118-0.357 0.044-0.69 0.434-0.887 0.09-0.031 0.167-0.044 0.242-0.044 0.268 0 0.506 0.172 0.657 0.474l2.173 7.583c0.138 0.417 0.09 0.68-0.162 0.876-0.142 0.096-0.301 0.149-0.444 0.149z" fill="#FF6B6F"/>							<path d="m14.825 12.19c-0.822 0-1.374-0.556-1.374-1.383 0-0.826 0.552-1.382 1.374-1.382s1.374 0.556 1.374 1.382c0 0.827-0.553 1.383-1.374 1.383z" fill="#FF6B6F"/>							<path d="m7.685 12.062c-0.821 0-1.374-0.555-1.374-1.382s0.553-1.383 1.374-1.383c0.822 0 1.374 0.556 1.374 1.383 0 0.853-0.713 1.382-1.374 1.382z" fill="#FF6B6F"/></g></svg><svg xmlns:xlink="http://www.w3.org/1999/xlink" xml:space="preserve" height="22" width="22" version="1.1" y="506" x="0px" viewBox="0 0 22 22" enable-background="new 0 0 22 22" id="search-15"><g id="search-15-Layer_1">	<path d="m21.313 22c-0.185 0-0.358-0.072-0.486-0.202l-5.073-5.073c-1.736 1.503-3.939 2.33-6.226 2.33-5.254 0-9.528-4.274-9.528-9.529 0-5.253 4.274-9.526 9.527-9.526s9.527 4.273 9.527 9.526c0 2.288-0.826 4.492-2.329 6.226l5.074 5.076c0.129 0.129 0.201 0.301 0.201 0.485 0 0.38-0.309 0.687-0.687 0.687zm-11.786-20.625c-4.495 0-8.151 3.657-8.151 8.152 0 4.496 3.656 8.153 8.151 8.153s8.151-3.657 8.151-8.153-3.657-8.152-8.151-8.152z" fill="#5C0D04"/></g></svg></svg>
