<svg xmlns="http://www.w3.org/2000/svg" viewBox="0 0 12 12">
	<defs>		
	</defs>
	<title>like</title>
	<g id="Слой_2" data-name="Слой 2">
		<g id="Layer_1" data-name="Layer 1">
			<path class="inner" d="M12,3.55A3.54,3.54,0,0,0,6,1,3.54,3.54,0,0,0,0,3.55C0,3.71,0,3.91,0,4c.39,3.5,5.45,8,6,8s5.59-4.55,6-8A3.4,3.4,0,0,0,12,3.55Z"/>
		</g>
		<g id="Layer_2" data-name="Layer 2">
			<path class="outer" d="M12,3.55A3.54,3.54,0,0,0,6,1,3.54,3.54,0,0,0,0,3.55C0,3.71,0,3.91,0,4c.39,3.5,5.45,8,6,8s5.59-4.55,6-8A3.42,3.42,0,0,0,12,3.55Zm-1,.29h0c-.28,2.56-3.74,6.07-5,7-1.24-.94-4.7-4.45-5-7,0,0,0-.18,0-.3A2.54,2.54,0,0,1,5.31,1.71L6,2.38l.69-.67A2.54,2.54,0,0,1,11,3.55,2.8,2.8,0,0,1,11,3.84Z"/>
		</g>
	</g>
</svg>
