<?xml version="1.0" encoding="utf-8"?>
<!-- Generator: Adobe Illustrator 16.2.0, SVG Export Plug-In . SVG Version: 6.00 Build 0)  -->
<!DOCTYPE svg PUBLIC "-//W3C//DTD SVG 1.1//EN" "http://www.w3.org/Graphics/SVG/1.1/DTD/svg11.dtd">
<svg version="1.1" xmlns="http://www.w3.org/2000/svg" xmlns:xlink="http://www.w3.org/1999/xlink" x="0px" y="0px" width="22px"
	 height="22px" viewBox="0 0 22 22" enable-background="new 0 0 22 22" xml:space="preserve">
<g id="Layer_1">
	<path fill="#5C0D04" d="M21.448,12.186c0.241-0.335,0.392-0.739,0.392-1.184c0-0.434-0.136-0.835-0.364-1.167
		c0.005-0.005,0.007-0.014,0.013-0.021h-0.022C21.795,9.449,22,8.971,22,8.442c0-1.899-1.539-3.438-3.438-3.438H3.438
		C1.539,5.005,0.001,6.543,0,8.442c0,0.529,0.205,1.007,0.533,1.372H0.507C0.513,9.821,0.515,9.83,0.52,9.834
		c-0.228,0.332-0.364,0.734-0.364,1.167c0,0.445,0.15,0.849,0.392,1.184H0.533C0.205,12.551,0,13.029,0,13.558
		c0,1.898,1.539,3.438,3.438,3.438h15.125c1.899,0,3.437-1.539,3.438-3.438c0-0.529-0.205-1.007-0.533-1.373H21.448z M3.438,6.379
		h15.125c1.139,0.002,2.061,0.924,2.063,2.063c0,0.379-0.308,0.686-0.688,0.688H2.063C1.683,9.128,1.376,8.821,1.375,8.442
		C1.377,7.303,2.299,6.381,3.438,6.379z M1.531,11.002c0-0.38,0.308-0.687,0.688-0.688h17.875c0.379,0.001,0.687,0.308,0.688,0.688
		c-0.001,0.379-0.308,0.687-0.688,0.687H2.219C1.839,11.688,1.532,11.381,1.531,11.002z M18.563,15.622H3.438
		c-1.139-0.003-2.061-0.925-2.063-2.063c0-0.379,0.308-0.687,0.688-0.688h17.875c0.379,0.001,0.687,0.309,0.688,0.688
		C20.623,14.697,19.701,15.619,18.563,15.622z"/>
</g>
<g id="Слой_2">
</g>
</svg>
