<svg xmlns="http://www.w3.org/2000/svg" viewBox="0 0 22.4 16.4"><defs><style>.cls-1{fill:#5c0d04;}</style></defs><title>mail</title><g id="Слой_2" data-name="Слой 2"><g id="Layer_1" data-name="Layer 1"><path class="cls-1" d="M2.2,16.4A2.2,2.2,0,0,1,0,14.2V2.2A2.2,2.2,0,0,1,2.2,0h18a2.2,2.2,0,0,1,2.2,2.2v12a2.2,2.2,0,0,1-2.2,2.2ZM20.11,15,14.3,9.19l-1.58,1.57a2.16,2.16,0,0,1-3.05,0L8.1,9.19,2.29,15ZM21,13.91V2.49L15.29,8.2Zm-19.6,0L7.11,8.2,1.4,2.49Zm9.26-4.13a.76.76,0,0,0,1.07,0L20.11,1.4H2.29Z"/></g></g></svg>