<svg xmlns="http://www.w3.org/2000/svg" viewBox="0 0 16.4 22"><defs><style>.cls-1{fill:#5c0d04;}.cls-2{fill:#ff6b6f;}</style></defs><title>map_point</title><g id="Слой_2" data-name="Слой 2"><g id="Layer_1" data-name="Layer 1"><path class="cls-1" d="M8.2,0A8.13,8.13,0,0,0,0,8C0,14.4,7.73,21.57,8.06,21.87L8.2,22l.14-.13C8.67,21.57,16.4,14.4,16.4,8A8.13,8.13,0,0,0,8.2,0Zm0,20c-1-.93-6.79-6.7-6.79-12A6.73,6.73,0,0,1,8.2,1.37,6.74,6.74,0,0,1,15,8C15,13.3,9.17,19.07,8.2,20Z"/><path class="cls-2" d="M8.2,3.92A4.16,4.16,0,0,0,4,8a4.16,4.16,0,0,0,4.2,4.11A4.16,4.16,0,0,0,12.41,8,4.16,4.16,0,0,0,8.2,3.92Zm0,6.85A2.74,2.74,0,1,1,11,8,2.77,2.77,0,0,1,8.2,10.77Z"/></g></g></svg>