<?xml version="1.0" encoding="utf-8"?>
<!-- Generator: Adobe Illustrator 16.2.0, SVG Export Plug-In . SVG Version: 6.00 Build 0)  -->
<!DOCTYPE svg PUBLIC "-//W3C//DTD SVG 1.1//EN" "http://www.w3.org/Graphics/SVG/1.1/DTD/svg11.dtd">
<svg version="1.1" xmlns="http://www.w3.org/2000/svg" xmlns:xlink="http://www.w3.org/1999/xlink" x="0px" y="0px" width="22px"
	 height="22px" viewBox="0 0 22 22" enable-background="new 0 0 22 22" xml:space="preserve">
<g id="Layer_1">
	<g>
		<path fill="#5C0D04" d="M19.839,15.713H2.161C0.97,15.713,0,16.683,0,17.875s0.97,2.161,2.161,2.161h17.679
			c1.191,0,2.161-0.969,2.161-2.161S21.03,15.713,19.839,15.713z M19.839,18.66H2.161c-0.433,0-0.785-0.352-0.785-0.785
			c0-0.434,0.353-0.786,0.785-0.786h17.679c0.433,0,0.785,0.353,0.785,0.786C20.625,18.308,20.272,18.66,19.839,18.66z"/>
		<path fill="#5C0D04" d="M19.839,8.838H2.161C0.97,8.838,0,9.809,0,10.999c0,1.191,0.97,2.161,2.161,2.161h17.679
			c1.191,0,2.161-0.97,2.161-2.161C22,9.809,21.03,8.838,19.839,8.838z M19.839,11.785H2.161c-0.433,0-0.785-0.352-0.785-0.786
			s0.353-0.785,0.785-0.785h17.679c0.433,0,0.785,0.352,0.785,0.785S20.272,11.785,19.839,11.785z"/>
		<path fill="#5C0D04" d="M2.161,6.285h17.679C21.03,6.285,22,5.315,22,4.125s-0.97-2.16-2.161-2.16H2.161
			C0.97,1.965,0,2.934,0,4.125S0.97,6.285,2.161,6.285z M2.161,3.339h17.679c0.433,0,0.785,0.352,0.785,0.786
			c0,0.433-0.353,0.785-0.785,0.785H2.161c-0.433,0-0.785-0.352-0.785-0.785C1.375,3.691,1.728,3.339,2.161,3.339z"/>
	</g>
</g>
<g id="Слой_2">
</g>
</svg>
