<svg xmlns="http://www.w3.org/2000/svg" viewBox="0 0 22.4 22"><defs><style>.cls-1{fill:#5c0d04;}</style></defs><title>phone</title><g id="Слой_2" data-name="Слой 2"><g id="Layer_1" data-name="Layer 1"><path class="cls-1" d="M17,22a5.48,5.48,0,0,1-2.2-.46h0l-.14,0A31.59,31.59,0,0,1,.51,7.66L.45,7.53l0,0A5.23,5.23,0,0,1,0,5.35C0,2.39,2.57,0,4.7,0A1.71,1.71,0,0,1,5.9.49a1.73,1.73,0,0,1,.23.29L9.42,4.93a1.63,1.63,0,0,1,.14,2.16L8.46,8.16h0l-.12.1a.78.78,0,0,0-.29.6.79.79,0,0,0,.35.65l.25.17-.11.07a18.7,18.7,0,0,0,3.93,3.84l0-.06.19.2a.81.81,0,0,0,.65.34A.79.79,0,0,0,14,13.8l.16-.18h0l1-1a1.7,1.7,0,0,1,2.24.13L21.61,16a1.54,1.54,0,0,1,.29.22,1.65,1.65,0,0,1,.49,1h0v.2C22.4,19.47,20,22,17,22ZM4.7,1.38c-1.3,0-3.3,1.71-3.3,4a3.9,3.9,0,0,0,.39,1.7,1.22,1.22,0,0,1,.08.2A30.23,30.23,0,0,0,15.06,20.18l.16.06a4.07,4.07,0,0,0,1.73.39c2.24,0,4-1.89,4-3.16a.4.4,0,0,0-.1-.3l-.16-.11-4.23-3.23-.12-.1a.31.31,0,0,0-.21-.08.26.26,0,0,0-.14,0L15,14.77a2.3,2.3,0,0,1-1.6.68,2.21,2.21,0,0,1-1.52-.6,20,20,0,0,1-4.55-4.45,2.22,2.22,0,0,1-.63-1.52,2.16,2.16,0,0,1,.7-1.58l1.12-1.1a.52.52,0,0,0,0-.1.29.29,0,0,0-.09-.21l-.1-.11L5,1.61,5,1.52A.31.31,0,0,0,4.7,1.38Z"/></g></g></svg>