<svg xmlns="http://www.w3.org/2000/svg" viewBox="0 0 22.4 20.41" widht="22px" height="22px"><defs><style>.cls-1{fill:#5c0d04;}.cls-2{fill:#ff6b6f;}</style></defs><title>present</title><g id="Слой_2" data-name="Слой 2"><g id="Layer_1" data-name="Layer 1"><path class="cls-1" d="M21.2,4H17.68a3,3,0,0,0-.17-2.52A3.11,3.11,0,0,0,14.76,0a4.12,4.12,0,0,0-2,.56A4,4,0,0,0,11.27,2H11.2v.2l0-.05h0A4,4,0,0,0,9.68.56a4.12,4.12,0,0,0-2-.56A3.11,3.11,0,0,0,4.87,1.48,3,3,0,0,0,4.7,4H1.2A1.2,1.2,0,0,0,0,5.21v2A1.2,1.2,0,0,0,1,8.39V19.21a1.2,1.2,0,0,0,1.2,1.2h18a1.2,1.2,0,0,0,1.2-1.2V8.39a1.2,1.2,0,0,0,1-1.18v-2A1.2,1.2,0,0,0,21.2,4ZM6.08,2.18A1.72,1.72,0,0,1,7.62,1.4,2.72,2.72,0,0,1,9,1.77a2.56,2.56,0,0,1,1.26,1.61c-.08.21-.16.42-.24.63H6.24A1.73,1.73,0,0,1,6.08,2.18ZM10.5,19H2.4v-4.6h8.1Zm0-6H2.4V8.41H7.08c-.48.52-.82.8-.82.8a.7.7,0,0,0-.09,1,.69.69,0,0,0,.35.23l.18,0a.7.7,0,0,0,.45-.16A14.69,14.69,0,0,0,8.95,8.41H10.5ZM13.41,1.77a2.72,2.72,0,0,1,1.35-.38,1.72,1.72,0,0,1,1.54.79A1.73,1.73,0,0,1,16.14,4H12.4c-.09-.2-.17-.4-.23-.53A2.47,2.47,0,0,1,13.41,1.77ZM20,19H11.9v-4.6H20Zm0-6H11.9V8.41h1.54a14.72,14.72,0,0,0,1.79,1.88.7.7,0,0,0,.45.16l.18,0a.7.7,0,0,0,.27-1.22,11.16,11.16,0,0,1-.82-.8H20Z"/><path class="cls-2" d="M21,7V5.41H13.09a14.9,14.9,0,0,0,1,1.6Z"/><path class="cls-2" d="M12.41,7q-.27-.41-.51-.84V7Z"/><path class="cls-2" d="M10.5,7V6.14c-.17.3-.34.59-.53.87Z"/><path class="cls-2" d="M8.25,7a15,15,0,0,0,1-1.6H1.4V7Z"/></g></g></svg>