<?xml version="1.0" encoding="utf-8"?>
<!-- Generator: Adobe Illustrator 16.2.0, SVG Export Plug-In . SVG Version: 6.00 Build 0)  -->
<!DOCTYPE svg PUBLIC "-//W3C//DTD SVG 1.1//EN" "http://www.w3.org/Graphics/SVG/1.1/DTD/svg11.dtd">
<svg version="1.1" xmlns="http://www.w3.org/2000/svg" xmlns:xlink="http://www.w3.org/1999/xlink" x="0px" y="0px" width="22px"
	 height="22px" viewBox="0 0 22 22" enable-background="new 0 0 22 22" xml:space="preserve">
<g id="Layer_1">
	<path fill="#5C0D04" d="M11,22c-6.065,0-11-4.934-11-11C0,4.934,4.935,0,11,0s11,4.934,11,10.999C22,17.066,17.065,22,11,22z
		 M4.906,18.439c1.72,1.41,3.875,2.186,6.094,2.186c2.248,0,4.426-0.795,6.158-2.241c-0.637-0.588-1.514-1.312-2.346-1.704
		c-1.244-0.59-1.953-1.235-2.234-2.036c-0.219-0.636-0.146-1.329,0.215-2.062c0.177-0.359,0.342-0.657,0.495-0.932
		c0.598-1.063,0.937-1.667,0.937-4.105c0-2.375-0.887-3.222-1.717-3.222c-0.191,0-0.293,0.038-0.479,0.104
		c-0.319,0.113-0.712,0.251-1.515,0.264C9.454,4.71,8.25,4.731,8.25,7.422c0,2.366,0.578,3.407,1.088,4.327
		c0.172,0.309,0.316,0.574,0.443,0.86c0.729,1.652,0.101,3.107-1.68,3.893C6.753,17.099,6.123,17.397,4.906,18.439z M11,1.374
		c-5.307,0-9.624,4.318-9.624,9.625c0,2.411,0.896,4.708,2.529,6.49c1.431-1.243,2.169-1.595,3.641-2.245
		c1.111-0.49,1.403-1.113,0.978-2.081c-0.098-0.225-0.222-0.448-0.353-0.682c-0.6-1.086-1.296-2.345-1.296-5.059
		c0-4.041,2.535-4.085,3.618-4.104c0.578-0.01,0.82-0.095,1.077-0.186c0.247-0.087,0.517-0.183,0.939-0.183
		c0.517,0,3.092,0.222,3.092,4.597c0,2.798-0.476,3.647-1.078,4.718c-0.178,0.314-0.333,0.592-0.496,0.925
		c-0.197,0.397-0.246,0.724-0.149,1.002c0.145,0.417,0.657,0.836,1.523,1.245c1.062,0.501,2.13,1.41,2.75,1.987
		c1.597-1.771,2.473-4.043,2.473-6.425C20.624,5.691,16.307,1.374,11,1.374z"/>
</g>
<g id="Слой_2">
</g>
</svg>
