<svg xmlns="http://www.w3.org/2000/svg" viewBox="0 0 60 60">	
	<title>profile_big</title>
	<g>
		<g id="profile_big" data-name="Layer 1">
			<path fill="#858585" d="M30,0A30,30,0,1,0,60,30,30,30,0,0,0,30,0m0,57.27a27.16,27.16,0,0,1-17.76-6.6,29.82,29.82,0,0,1,9.49-5.89C26.44,42.71,28,39,26.12,34.69c-.35-.78-.74-1.5-1.17-2.27-1.45-2.61-3.13-5.58-3.13-12.36,0-8,3.81-8.07,6.83-8.13a11.14,11.14,0,0,0,4-.7,3.86,3.86,0,0,1,1.51-.32c2.53,0,5.31,2.49,5.31,9.49s-1.06,8.79-2.67,11.67c-.42.75-.88,1.57-1.36,2.56a6.76,6.76,0,0,0-.57,5.3c.73,2.07,2.61,3.77,5.92,5.34a30.8,30.8,0,0,1,7.1,5.24A27.13,27.13,0,0,1,30,57.27m19.88-8.65A33.62,33.62,0,0,0,42,42.81c-2.58-1.21-4.05-2.45-4.51-3.77a4.09,4.09,0,0,1,.44-3.2c.46-.94.89-1.72,1.3-2.43,1.7-3,3-5.23,3-13,0-11.62-6.71-12.22-8-12.22a6.49,6.49,0,0,0-2.42.48,8.53,8.53,0,0,1-3.16.55c-3.08.05-9.51.16-9.51,10.85,0,7.48,2,10.92,3.48,13.68.39.7.76,1.37,1.05,2,1.3,3,.35,5-3,6.5a32.27,32.27,0,0,0-10.37,6.49,27.27,27.27,0,1,1,39.62-.16"/>
		</g>
	</g>
</svg>