<?xml version="1.0" encoding="utf-8"?>
<!-- Generator: Adobe Illustrator 16.2.0, SVG Export Plug-In . SVG Version: 6.00 Build 0)  -->
<!DOCTYPE svg PUBLIC "-//W3C//DTD SVG 1.1//EN" "http://www.w3.org/Graphics/SVG/1.1/DTD/svg11.dtd">
<svg version="1.1" xmlns="http://www.w3.org/2000/svg" xmlns:xlink="http://www.w3.org/1999/xlink" x="0px" y="0px" width="22px"
	 height="22px" viewBox="0 0 22 22" enable-background="new 0 0 22 22" xml:space="preserve">
<g id="Layer_1">
	<g>
		<g>
			<g>
				<path fill="#5C0D04" d="M5.836,22c-0.19,0-0.374-0.079-0.516-0.221l-5.1-5.13c-0.294-0.296-0.294-0.743,0-1.039
					c0.475-0.478,0.736-1.112,0.736-1.79c0-0.675-0.261-1.311-0.736-1.788C0.079,11.889,0,11.705,0,11.513s0.079-0.376,0.22-0.519
					L10.93,0.221c0.157-0.157,0.316-0.157,0.581-0.157c0.08,0,0.18,0.034,0.286,0.069c0.082,0.028,0.176,0.059,0.224,0.059
					c0.545,0.506,1.176,0.77,1.849,0.77c0.672,0,1.304-0.264,1.778-0.74C15.789,0.078,15.973,0,16.164,0
					c0.19,0,0.374,0.078,0.516,0.221l5.1,5.129C21.921,5.494,22,5.679,22,5.871s-0.079,0.376-0.22,0.519
					c-0.475,0.478-0.736,1.113-0.736,1.79s0.261,1.312,0.736,1.789C21.921,10.11,22,10.294,22,10.487c0,0.192-0.079,0.376-0.22,0.52
					L11.07,21.779c-0.118,0.029-0.211,0.06-0.293,0.088c-0.106,0.036-0.207,0.069-0.287,0.069c-0.08,0-0.18-0.033-0.286-0.069
					c-0.082-0.028-0.176-0.059-0.224-0.059c-0.538-0.5-1.203-0.77-1.896-0.77c-0.691,0-1.32,0.269-1.726,0.735
					C6.21,21.921,6.027,22,5.836,22z M8.147,19.524c0.824,0,1.647,0.229,2.328,0.646l9.703-9.758c-0.974-1.405-0.974-3.19,0-4.596
					l-4.09-4.113c-0.623,0.417-1.413,0.644-2.235,0.644c-0.824,0-1.647-0.229-2.328-0.646l-9.706,9.763
					c0.852,1.401,0.852,3.186,0,4.587l4.094,4.117C6.536,19.752,7.326,19.524,8.147,19.524z"/>
			</g>
			<g>
				<g>
					<path fill="#FF6B6F" d="M12.275,15.267c-0.201,0-0.564-0.075-0.732-0.581l-2.168-7.57c-0.118-0.357,0.044-0.69,0.434-0.887
						c0.09-0.031,0.167-0.044,0.242-0.044c0.268,0,0.506,0.172,0.657,0.474l2.173,7.583c0.138,0.417,0.09,0.68-0.162,0.876
						C12.577,15.214,12.418,15.267,12.275,15.267z"/>
				</g>
				<g>
					<g>
						<g>
							<path fill="#FF6B6F" d="M14.825,12.19c-0.822,0-1.374-0.556-1.374-1.383c0-0.826,0.552-1.382,1.374-1.382
								s1.374,0.556,1.374,1.382C16.199,11.634,15.646,12.19,14.825,12.19z"/>
						</g>
					</g>
					<g>
						<g>
							<path fill="#FF6B6F" d="M7.685,12.062c-0.821,0-1.374-0.555-1.374-1.382c0-0.827,0.553-1.383,1.374-1.383
								c0.822,0,1.374,0.556,1.374,1.383C9.059,11.533,8.346,12.062,7.685,12.062z"/>
						</g>
					</g>
				</g>
			</g>
		</g>
	</g>
</g>
<g id="Слой_2">
</g>
</svg>
