<svg xmlns="http://www.w3.org/2000/svg" viewBox="0 0 12.4 15.07">
	<defs>
		<style>.cls-1{fill:#858585;}</style>
	</defs>
	<title>trash</title>
	<g id="Слой_2" data-name="Слой 2">
		<g id="Layer_1" data-name="Layer 1">
			<path class="cls-1" d="M3.2,15.07a1.6,1.6,0,0,1-1.53-1.5L1,3.07H.53A.53.53,0,1,1,.53,2H3.67V.87A.87.87,0,0,1,4.53,0H7.87a.87.87,0,0,1,.87.87V2h3.13a.53.53,0,1,1,0,1.07h-.48l-.65,10.48A1.62,1.62,0,0,1,9.2,15.07Zm-.47-1.55A.52.52,0,0,0,3.2,14h6a.52.52,0,0,0,.47-.49l.65-10.44H2.08ZM7.67,2V1.07H4.73V2ZM4.2,13.07a.53.53,0,0,1-.53-.51l-.49-8A.54.54,0,0,1,3.69,4h0a.54.54,0,0,1,.55.51l.49,8a.53.53,0,0,1-.51.56Zm2,0a.53.53,0,0,1-.53-.53v-8a.53.53,0,1,1,1.07,0v8A.53.53,0,0,1,6.2,13.07Zm2,0a.53.53,0,0,1-.51-.55l.48-8A.53.53,0,0,1,8.69,4a.54.54,0,0,1,.53.55l-.48,8a.53.53,0,0,1-.53.51Z"/>
		</g>
	</g>
</svg>