<?xml version="1.0" encoding="utf-8"?>
<!-- Generator: Adobe Illustrator 16.2.0, SVG Export Plug-In . SVG Version: 6.00 Build 0)  -->
<!DOCTYPE svg PUBLIC "-//W3C//DTD SVG 1.1//EN" "http://www.w3.org/Graphics/SVG/1.1/DTD/svg11.dtd">
<svg version="1.1" xmlns="http://www.w3.org/2000/svg" xmlns:xlink="http://www.w3.org/1999/xlink" x="0px" y="0px" width="22px"
	 height="22px" viewBox="0 0 22 22" enable-background="new 0 0 22 22" xml:space="preserve">
<g id="Layer_1">
	<g>
		<path fill="#5C0D04" d="M21.313,18.66h-0.294V6.286h0.294C21.691,6.286,22,5.977,22,5.598s-0.309-0.688-0.688-0.688h-0.294V3.143
			c0-0.649-0.529-1.179-1.179-1.179H2.161c-0.649,0-1.179,0.529-1.179,1.179v1.768H0.688C0.309,4.911,0,5.219,0,5.598
			s0.309,0.688,0.688,0.688h0.294V18.66H0.688C0.309,18.66,0,18.969,0,19.348c0,0.379,0.309,0.688,0.688,0.688h20.625
			c0.379,0,0.688-0.31,0.688-0.688C22,18.969,21.691,18.66,21.313,18.66z M11.786,18.66h-1.571v-4.517h1.571V18.66z M19.643,18.66
			h-6.482v-5.205c0-0.379-0.309-0.688-0.688-0.688H9.527c-0.379,0-0.688,0.309-0.688,0.688v5.205H2.357V8.806
			C2.726,9.08,3.173,9.232,3.634,9.232c0.546,0,1.073-0.214,1.473-0.59c0.4,0.376,0.926,0.59,1.473,0.59
			c0.546,0,1.073-0.214,1.473-0.59c0.4,0.376,0.926,0.59,1.473,0.59c0.546,0,1.073-0.214,1.473-0.59
			c0.4,0.376,0.926,0.59,1.473,0.59s1.073-0.214,1.473-0.59c0.4,0.376,0.927,0.59,1.473,0.59c0.547,0,1.073-0.214,1.473-0.59
			c0.4,0.376,0.927,0.59,1.473,0.59c0.461,0,0.908-0.152,1.277-0.427V18.66z M19.643,4.911H2.357V3.34h17.285V4.911z"/>
		<path fill="#FF6B6F" d="M17.7,7c0,0.441,0.359,0.8,0.8,0.8s0.8-0.358,0.8-0.8V6.201h-1.6V7z"/>
		<path fill="#FF6B6F" d="M14.7,7c0,0.441,0.359,0.8,0.8,0.8s0.8-0.358,0.8-0.8V6.201h-1.6V7z"/>
		<path fill="#FF6B6F" d="M11.7,7c0,0.441,0.359,0.8,0.8,0.8s0.8-0.358,0.8-0.8V6.201h-1.6V7z"/>
		<path fill="#FF6B6F" d="M8.7,7c0,0.441,0.359,0.8,0.8,0.8s0.8-0.358,0.8-0.8V6.201H8.7V7z"/>
		<path fill="#FF6B6F" d="M5.7,7c0,0.441,0.359,0.8,0.8,0.8S7.3,7.441,7.3,7V6.201H5.7V7z"/>
		<path fill="#FF6B6F" d="M2.7,7c0,0.441,0.359,0.8,0.8,0.8S4.3,7.441,4.3,7V6.201H2.7V7z"/>
		<path fill="#5C0D04" d="M14.5,17.201c-0.386,0-0.7-0.315-0.7-0.701v-3c0-0.386,0.314-0.7,0.7-0.7h3c0.386,0,0.7,0.314,0.7,0.7v3
			c0,0.386-0.314,0.701-0.7,0.701H14.5z"/>
		<rect x="15.2" y="14.2" fill="#FFF0E3" width="1.6" height="1.599"/>
		<path fill="#5C0D04" d="M4.5,17.201c-0.386,0-0.7-0.315-0.7-0.701v-3c0-0.386,0.314-0.7,0.7-0.7h3c0.386,0,0.7,0.314,0.7,0.7v3
			c0,0.386-0.314,0.701-0.7,0.701H4.5z"/>
		<rect x="5.2" y="14.2" fill="#FFF0E3" width="1.6" height="1.599"/>
	</g>
</g>
<g id="Слой_2">
</g>
</svg>
