<?xml version="1.0" encoding="utf-8"?>
<!-- Generator: Adobe Illustrator 16.2.0, SVG Export Plug-In . SVG Version: 6.00 Build 0)  -->
<!DOCTYPE svg PUBLIC "-//W3C//DTD SVG 1.1//EN" "http://www.w3.org/Graphics/SVG/1.1/DTD/svg11.dtd">
<svg version="1.1" xmlns="http://www.w3.org/2000/svg" xmlns:xlink="http://www.w3.org/1999/xlink" x="0px" y="0px" width="22px"
	 height="22px" viewBox="0 0 22 22" enable-background="new 0 0 22 22" xml:space="preserve">
<g id="Layer_1">
	<g>
		<path fill="#5C0D04" d="M19.938,9.625H13.75V8.938c0-1.139-0.923-2.062-2.063-2.063h-1.375C9.174,6.876,8.25,7.799,8.25,8.938
			v0.688H2.063C0.924,9.626,0,10.549,0,11.688v8.25C0,21.077,0.924,22,2.063,22h17.875C21.077,22,22,21.077,22,19.938v-8.25
			C22,10.549,21.077,9.626,19.938,9.625L19.938,9.625z M9.625,8.938c0-0.379,0.309-0.687,0.688-0.687h1.375
			c0.38,0,0.688,0.308,0.688,0.687v0.688h-2.75V8.938z M20.625,19.938c0,0.38-0.308,0.687-0.688,0.688H2.063
			c-0.379,0-0.688-0.308-0.688-0.688V19.25h19.25V19.938z M20.625,17.875H1.375v-1.757c0,0.237,0.872,0.382,1.375,0.382
			c0.826,0,1.559-0.372,2.063-0.95c0.504,0.577,1.236,0.95,2.063,0.95s1.559-0.372,2.063-0.95C9.441,16.127,10.174,16.5,11,16.5
			s1.559-0.372,2.063-0.95c0.504,0.577,1.236,0.95,2.063,0.95s1.559-0.372,2.063-0.95c0.504,0.577,1.236,0.95,2.063,0.95
			c0.503,0,0.688-0.146,1.375-0.382V17.875z M20.625,13.75c0,0.757-0.618,1.374-1.375,1.375c-0.756-0.001-1.374-0.619-1.375-1.375
			c0-0.379-0.308-0.688-0.688-0.688c-0.379,0-0.688,0.308-0.688,0.688c-0.001,0.757-0.618,1.374-1.375,1.375
			c-0.756-0.001-1.373-0.619-1.375-1.375c0-0.379-0.308-0.688-0.688-0.688s-0.688,0.308-0.688,0.688
			c-0.001,0.757-0.618,1.374-1.375,1.375c-0.756-0.001-1.373-0.619-1.375-1.375c0-0.379-0.308-0.688-0.688-0.688
			c-0.379,0-0.688,0.308-0.688,0.688c-0.001,0.757-0.619,1.374-1.375,1.375C6.119,15.124,5.502,14.507,5.5,13.75
			c0-0.379-0.308-0.688-0.688-0.688c-0.379,0-0.688,0.308-0.688,0.688c-0.001,0.757-0.618,1.374-1.375,1.375
			c-0.756-0.001-1.375-0.619-1.375-1.375v-2.062c0-0.38,0.309-0.688,0.688-0.688h17.875c0.38,0,0.688,0.308,0.688,0.688V13.75z
			 M20.625,13.75"/>
		<g>
			<path fill="#5C0D04" d="M13.75,4.125c-0.008-0.488-0.185-0.906-0.399-1.332c-0.649-1.25-1.823-2.541-1.839-2.565
				C11.381,0.083,11.197,0,11,0s-0.381,0.083-0.512,0.229c-0.01,0.011-0.537,0.599-1.077,1.35C9.14,1.956,8.866,2.372,8.648,2.793
				C8.435,3.22,8.258,3.637,8.25,4.125C8.251,5.643,9.481,6.874,11,6.875C12.518,6.874,13.749,5.643,13.75,4.125L13.75,4.125z"/>
			<path fill="#FF6B6F" d="M12.375,4.125C12.374,4.881,11.756,5.499,11,5.5c-0.756-0.001-1.374-0.619-1.375-1.375
				c-0.008-0.08,0.073-0.377,0.246-0.703c0.253-0.495,0.67-1.081,1.018-1.524c0.039-0.05,0.074-0.092,0.111-0.139
				c0.202,0.253,0.436,0.56,0.655,0.882c0.209,0.308,0.402,0.625,0.533,0.903C12.323,3.817,12.38,4.057,12.375,4.125L12.375,4.125z"
				/>
		</g>
	</g>
</g>
<g id="Слой_2">
</g>
</svg>
