<svg xmlns="http://www.w3.org/2000/svg" viewBox="0 0 16.4 16.4">	
	<title>caledar</title>
	<g>
		<g id="caledar">
			<path d="M1.65,16.4A1.66,1.66,0,0,1,0,14.75V3.11A1.66,1.66,0,0,1,1.65,1.45H2.91V.56A.56.56,0,0,1,4,.56v.89h8.33V.56a.56.56,0,1,1,1.13,0v.89h1.25A1.66,1.66,0,0,1,16.4,3.11V14.75a1.66,1.66,0,0,1-1.65,1.65Zm-.53-1.65a.53.53,0,0,0,.53.53H14.75a.53.53,0,0,0,.53-.53V6.22H1.13ZM15.27,5.09v-2a.53.53,0,0,0-.53-.53H13.49v.89a.56.56,0,0,1-1.13,0V2.58H4v.89a.56.56,0,0,1-1.13,0V2.58H1.65a.53.53,0,0,0-.53.53v2Z" fill="#858585"/>
		</g>
	</g>
</svg>