<?xml version="1.0" encoding="utf-8"?>
<!-- Generator: Adobe Illustrator 16.2.0, SVG Export Plug-In . SVG Version: 6.00 Build 0)  -->
<!DOCTYPE svg PUBLIC "-//W3C//DTD SVG 1.1//EN" "http://www.w3.org/Graphics/SVG/1.1/DTD/svg11.dtd">
<svg version="1.1" xmlns="http://www.w3.org/2000/svg" xmlns:xlink="http://www.w3.org/1999/xlink" x="0px" y="0px" width="22px"
	 height="22px" viewBox="0 0 22 22" enable-background="new 0 0 22 22" xml:space="preserve">
<g id="Layer_1">
	<path fill="#5C0D04" d="M17.87,19.051c-1.191,0-2.16-0.968-2.16-2.16c0-0.27,0.052-0.533,0.155-0.786h-4.826
		c0.103,0.254,0.155,0.518,0.155,0.786c0,1.192-0.97,2.16-2.161,2.16s-2.16-0.968-2.16-2.16c0-0.331,0.08-0.658,0.23-0.96
		c-0.094-0.084-0.164-0.191-0.202-0.315L3.872,4.323H0.688C0.309,4.323,0,4.016,0,3.636c0-0.379,0.309-0.687,0.688-0.687H4.4
		c0.24,0,0.458,0.128,0.581,0.332l0.027-0.003l0.052,0.167l0.657,2.451h15.588c0.375,0,0.681,0.301,0.688,0.675L22,6.571
		l-0.025,0.173l-2.042,9.184l-0.068-0.067c-0.021,0.024-0.043,0.046-0.066,0.068c0.152,0.304,0.231,0.633,0.231,0.962
		C20.03,18.083,19.061,19.051,17.87,19.051z M17.87,16.105c-0.433,0-0.786,0.352-0.786,0.786c0,0.434,0.353,0.786,0.786,0.786
		c0.434,0,0.786-0.352,0.786-0.786C18.655,16.457,18.303,16.105,17.87,16.105z M9.033,16.105c-0.433,0-0.785,0.352-0.785,0.786
		c0,0.434,0.353,0.786,0.785,0.786c0.433,0,0.786-0.352,0.786-0.786C9.819,16.457,9.466,16.105,9.033,16.105z M18.79,14.731
		l0.352-1.571H17.34l-0.175,1.571H18.79z M15.781,14.731l0.176-1.571h-1.818v1.571H15.781z M12.764,14.731V13.16h-1.818l0.176,1.571
		H12.764z M9.738,14.731L9.563,13.16H7.666l0.419,1.571H9.738z M19.446,11.786l0.348-1.572h-2.128l-0.174,1.572H19.446z
		 M16.109,11.786l0.175-1.572h-2.145v1.572H16.109z M12.764,11.786v-1.572h-2.146l0.173,1.572H12.764z M9.412,11.786l-0.173-1.572
		H6.877l0.42,1.572H9.412z M20.102,8.841l0.348-1.572h-2.457l-0.175,1.572H20.102z M16.437,8.841l0.174-1.572h-2.472v1.572H16.437z
		 M12.764,8.841V7.269h-2.471l0.173,1.572H12.764z M9.083,8.841L8.908,7.269H6.085l0.423,1.572H9.083z"/>
</g>
<g id="Слой_2">
</g>
</svg>
