<?xml version="1.0" encoding="utf-8"?>
<!-- Generator: Adobe Illustrator 16.2.0, SVG Export Plug-In . SVG Version: 6.00 Build 0)  -->
<!DOCTYPE svg PUBLIC "-//W3C//DTD SVG 1.1//EN" "http://www.w3.org/Graphics/SVG/1.1/DTD/svg11.dtd">
<svg version="1.1" xmlns="http://www.w3.org/2000/svg" xmlns:xlink="http://www.w3.org/1999/xlink" x="0px" y="0px" width="22px"
	 height="22px" viewBox="0 0 22 22" enable-background="new 0 0 22 22" xml:space="preserve">
<g id="Layer_1">
	<g>
		<path fill="#5C0D04" d="M13.291,0.239c-0.227-0.048-0.454-0.072-0.68-0.072c-0.895,0.001-1.753,0.364-2.393,0.996
			c-2.16,2.139-7.255,7.26-9.224,9.24c-0.276,0.279-0.488,0.603-0.652,0.95c-0.019,0.032-0.039,0.061-0.052,0.097
			C0.104,11.88,0,12.344,0,12.822v5.741c0,1.896,1.542,3.271,3.438,3.271h15.125c1.896,0,3.438-1.375,3.438-3.271V11
			C22,5.719,18.26,1.294,13.291,0.239L13.291,0.239z M20.625,18.563c0,1.129-0.933,1.896-2.063,1.896H3.438
			c-1.13,0-2.063-0.766-2.063-1.896v-5.741c0-0.153,0.021-0.613,0.053-0.613H5.5v0.854c0,1.139,0.924,2.062,2.063,2.063
			c1.14-0.001,2.063-0.924,2.063-2.063v-0.854h11V18.563z M8.938,10.834c-0.181,0-0.358,0.157-0.485,0.285
			c-0.129,0.128-0.202,0.389-0.202,0.569v1.375c0,0.379-0.308,0.687-0.688,0.688c-0.379,0-0.688-0.308-0.688-0.688v-1.375
			c0-0.181-0.073-0.441-0.201-0.569c-0.128-0.127-0.306-0.285-0.486-0.285H2.341c2.174-2.063,6.816-6.769,8.846-8.776
			C11.575,1.673,12.093,1.5,12.611,1.5c0.132,0,0.263-0.049,0.394-0.021c4.341,0.921,7.622,5.23,7.62,9.355H8.938z M8.938,10.834"/>
		<rect x="1.375" y="15.739" fill="#FF6B6F" width="19.25" height="1.375"/>
	</g>
</g>
<g id="Слой_2">
</g>
</svg>
