<svg xmlns="http://www.w3.org/2000/svg" viewBox="0 0 12.4 12.4"><defs><style>.cls-1{fill:#5c0d04;}</style></defs><title>Ресурс 1</title><g id="Слой_2" data-name="Слой 2"><g id="Layer_1" data-name="Layer 1"><path class="cls-1" d="M11.86,12.4a.54.54,0,0,1-.37-.15L6.2,7,.91,12.24a.53.53,0,1,1-.76-.75L5.45,6.2.16.91A.54.54,0,0,1,0,.53.54.54,0,0,1,.53,0,.53.53,0,0,1,.91.16L6.2,5.45,11.49.16A.53.53,0,0,1,11.87,0a.53.53,0,0,1,.53.53.53.53,0,0,1-.16.38L7,6.2l5.29,5.29a.52.52,0,0,1,.16.38.53.53,0,0,1-.53.53Z"/></g></g></svg>