<?xml version="1.0" encoding="utf-8"?>
<!-- Generator: Adobe Illustrator 16.2.0, SVG Export Plug-In . SVG Version: 6.00 Build 0)  -->
<!DOCTYPE svg PUBLIC "-//W3C//DTD SVG 1.1//EN" "http://www.w3.org/Graphics/SVG/1.1/DTD/svg11.dtd">
<svg version="1.1" xmlns="http://www.w3.org/2000/svg" xmlns:xlink="http://www.w3.org/1999/xlink" x="0px" y="0px" width="22px"
	 height="22px" viewBox="0 0 22 22" enable-background="new 0 0 22 22" xml:space="preserve">
<g id="Layer_1">
	<g>
		<path fill="#5C0D04" d="M21.805,8.965c-0.057-0.295-0.296-0.52-0.595-0.556s-0.584,0.126-0.708,0.4
			c-0.218,0.482-0.696,0.816-1.251,0.816c-0.615,0-1.135-0.414-1.309-0.984c-0.104-0.349-0.462-0.553-0.815-0.471
			C16.91,8.221,16.704,8.25,16.5,8.25c-1.515-0.003-2.747-1.235-2.75-2.75c0-0.204,0.029-0.409,0.08-0.626
			c0.084-0.354-0.123-0.712-0.471-0.816c-0.57-0.173-0.985-0.692-0.984-1.308c-0.001-0.555,0.334-1.033,0.815-1.25
			c0.274-0.124,0.436-0.411,0.4-0.708c-0.036-0.3-0.26-0.54-0.556-0.595C12.379,0.073,11.7,0,11,0C4.933,0.001,0.002,4.934,0,11
			c0.002,6.067,4.933,11,11,11c6.068,0,10.999-4.932,11-11C22,10.301,21.927,9.622,21.805,8.965L21.805,8.965z M17.803,17.803
			c-1.745,1.745-4.147,2.823-6.803,2.823s-5.057-1.078-6.803-2.823C2.453,16.058,1.375,13.655,1.375,11
			c0-2.655,1.078-5.058,2.822-6.803C5.943,2.454,8.345,1.376,11,1.376c0.124,0,0.245,0.013,0.368,0.018
			C11.139,1.794,11.001,2.255,11,2.75c0.001,1.026,0.571,1.907,1.4,2.376c-0.013,0.122-0.025,0.246-0.025,0.374
			c0.002,2.276,1.849,4.124,4.125,4.126c0.129,0,0.252-0.013,0.374-0.026c0.47,0.83,1.349,1.398,2.376,1.401
			c0.496,0,0.956-0.138,1.356-0.368c0.006,0.122,0.019,0.243,0.019,0.368C20.625,13.655,19.547,16.058,17.803,17.803L17.803,17.803z
			 M17.803,17.803"/>
		<path fill="#5C0D04" d="M9.625,5.5c0,0.76-0.615,1.375-1.375,1.375c-0.759,0-1.375-0.615-1.375-1.375
			c0-0.759,0.616-1.374,1.375-1.374C9.01,4.126,9.625,4.741,9.625,5.5L9.625,5.5z M9.625,5.5"/>
		<path fill="#5C0D04" d="M6.875,11c0,0.759-0.615,1.375-1.375,1.375c-0.759,0-1.375-0.615-1.375-1.375S4.741,9.626,5.5,9.626
			C6.26,9.626,6.875,10.241,6.875,11L6.875,11z M6.875,11"/>
		<path fill="#5C0D04" d="M13.75,16.5c0,0.76-0.615,1.375-1.375,1.375C11.616,17.875,11,17.26,11,16.5
			c0-0.759,0.616-1.374,1.375-1.374C13.135,15.126,13.75,15.741,13.75,16.5L13.75,16.5z M13.75,16.5"/>
		<path fill="#5C0D04" d="M12.375,11.688c0,0.38-0.308,0.687-0.688,0.687S11,12.068,11,11.688C11,11.309,11.308,11,11.688,11
			S12.375,11.309,12.375,11.688L12.375,11.688z M12.375,11.688"/>
		<path fill="#5C0D04" d="M17.875,14.438c0,0.379-0.308,0.688-0.688,0.688S16.5,14.817,16.5,14.438c0-0.38,0.308-0.688,0.688-0.688
			S17.875,14.058,17.875,14.438L17.875,14.438z M17.875,14.438"/>
		<path fill="#5C0D04" d="M8.25,15.813c0,0.38-0.308,0.688-0.688,0.688s-0.688-0.308-0.688-0.688c0-0.379,0.308-0.687,0.688-0.687
			S8.25,15.434,8.25,15.813L8.25,15.813z M8.25,15.813"/>
	</g>
</g>
<g id="Слой_2">
</g>
</svg>
