<?xml version="1.0" encoding="utf-8"?>
<!-- Generator: Adobe Illustrator 16.2.0, SVG Export Plug-In . SVG Version: 6.00 Build 0)  -->
<!DOCTYPE svg PUBLIC "-//W3C//DTD SVG 1.1//EN" "http://www.w3.org/Graphics/SVG/1.1/DTD/svg11.dtd">
<svg version="1.1" xmlns="http://www.w3.org/2000/svg" xmlns:xlink="http://www.w3.org/1999/xlink" x="0px" y="0px" width="22px"
	 height="22px" viewBox="0 0 22 22" enable-background="new 0 0 22 22" xml:space="preserve">
<g id="Layer_1">
	<g>
		<path fill="#5C0D04" d="M19.25,9.625h-0.126c-0.502-2.993-2.62-5.438-5.421-6.408C13.73,3.064,13.75,2.909,13.75,2.75
			C13.747,1.23,12.521,0.003,11,0C9.48,0.003,8.253,1.23,8.25,2.75c0,0.159,0.02,0.314,0.047,0.468
			c-2.802,0.97-4.918,3.415-5.421,6.408H2.75C1.23,9.628,0.003,10.855,0,12.375c0.003,1.52,1.23,2.75,2.75,2.75h0.124l1.044,5.216
			C4.11,21.308,4.956,22,5.94,22h10.12c0.982,0,1.829-0.692,2.022-1.658l1.043-5.216h0.124c1.521,0,2.747-1.23,2.75-2.75
			C21.997,10.855,20.771,9.628,19.25,9.625L19.25,9.625z M11,1.376c0.763,0,1.374,0.612,1.375,1.374
			c0,0.215-0.054,0.418-0.148,0.591l-0.02,0.039C12.005,3.811,11.544,4.126,11,4.125c-0.544,0-1.004-0.314-1.206-0.746L9.773,3.341
			C9.679,3.168,9.625,2.965,9.625,2.75C9.626,1.988,10.237,1.376,11,1.376L11,1.376z M8.25,20.625H5.94
			c-0.328,0-0.61-0.232-0.675-0.554l-0.989-4.946H8.25V20.625z M12.375,20.625h-2.75v-5.5h2.75V20.625z M16.734,20.072
			c-0.063,0.322-0.347,0.554-0.674,0.554H13.75v-5.5h3.974L16.734,20.072z M19.25,13.75H2.75c-0.763,0-1.374-0.612-1.375-1.375
			C1.376,11.613,1.987,11,2.75,11h0.729c0.356,0,0.652-0.271,0.685-0.626c0.245-2.767,2.156-5.073,4.708-5.9
			C9.368,5.1,10.138,5.5,11,5.5s1.632-0.4,2.128-1.026c2.552,0.827,4.463,3.133,4.709,5.9C17.868,10.729,18.164,11,18.521,11h0.729
			c0.763,0,1.374,0.612,1.375,1.375C20.624,13.138,20.013,13.75,19.25,13.75L19.25,13.75z M19.25,13.75"/>
		<circle fill="#FF6B6F" cx="11" cy="2.626" r="1.583"/>
	</g>
</g>
<g id="Слой_2">
</g>
</svg>
