<?xml version="1.0" encoding="utf-8"?>
<!-- Generator: Adobe Illustrator 16.2.0, SVG Export Plug-In . SVG Version: 6.00 Build 0)  -->
<!DOCTYPE svg PUBLIC "-//W3C//DTD SVG 1.1//EN" "http://www.w3.org/Graphics/SVG/1.1/DTD/svg11.dtd">
<svg version="1.1" xmlns="http://www.w3.org/2000/svg" xmlns:xlink="http://www.w3.org/1999/xlink" x="0px" y="0px" width="22px"
	 height="22px" viewBox="0 0 22 22" enable-background="new 0 0 22 22" xml:space="preserve">
<g id="Layer_1">
	<g>
		<g>
			<defs>
				<rect id="SVGID_57_" y="-0.026" width="22" height="22.051"/>
			</defs>
			<clipPath id="SVGID_2_">
				<use xlink:href="#SVGID_57_"  overflow="visible"/>
			</clipPath>
			<path clip-path="url(#SVGID_2_)" fill="#5C0D04" d="M20.373,1.601c-1.071-1.073-2.485-1.61-3.893-1.609
				c-1.407-0.001-2.82,0.537-3.893,1.611L1.61,12.58C0.537,13.651,0,15.064,0,16.472c0,1.407,0.537,2.82,1.61,3.893
				c1.072,1.072,2.485,1.611,3.893,1.609c1.407,0.001,2.82-0.538,3.893-1.61L20.373,9.386c1.073-1.072,1.611-2.486,1.61-3.893
				C21.984,4.087,21.446,2.673,20.373,1.601L20.373,1.601z M19.4,8.414L8.422,19.392c-0.806,0.804-1.859,1.205-2.919,1.206
				c-1.061-0.001-2.114-0.402-2.92-1.206c-0.805-0.807-1.206-1.86-1.206-2.92c0-1.06,0.4-2.113,1.206-2.92L13.562,2.574
				c0.806-0.806,1.858-1.206,2.919-1.207c1.061,0,2.114,0.402,2.92,1.207c0.805,0.806,1.206,1.86,1.207,2.92
				C20.606,6.555,20.206,7.608,19.4,8.414L19.4,8.414z M19.4,8.414"/>
		</g>
		<path fill="#FF6B6F" d="M18.056,3.597l0.003-0.008c-0.235-0.079-0.477-0.117-0.71-0.117c-1.224,0.007-2.211,0.995-2.219,2.217
			c0,0.234,0.038,0.475,0.117,0.712l0.046,0.276c0,0.224-0.094,0.434-0.251,0.593c-0.159,0.157-0.369,0.25-0.594,0.25l-0.276-0.045
			c-0.235-0.08-0.477-0.117-0.71-0.117c-1.224,0.007-2.211,0.994-2.219,2.218c0,0.234,0.038,0.475,0.117,0.71l0.046,0.276
			c0,0.225-0.094,0.434-0.252,0.592s-0.368,0.252-0.593,0.252l-0.276-0.046c-0.235-0.079-0.477-0.117-0.711-0.117
			c-1.223,0.008-2.21,0.995-2.218,2.218c0,0.233,0.038,0.476,0.117,0.71L7.52,14.45c0,0.223-0.094,0.433-0.252,0.592
			c-0.158,0.159-0.368,0.252-0.593,0.252L6.4,15.246c-0.235-0.078-0.477-0.117-0.711-0.117c-1.223,0.008-2.21,0.995-2.218,2.219
			c0,0.234,0.038,0.474,0.117,0.71c0.094,0.281,0.354,0.47,0.651,0.47c0.379,0,0.687-0.307,0.687-0.687
			c0-0.076-0.02-0.146-0.043-0.215l0.009-0.002l-0.046-0.276c0-0.225,0.093-0.434,0.251-0.593c0.159-0.158,0.369-0.251,0.593-0.251
			l0.276,0.048h0.001c0.235,0.078,0.476,0.116,0.71,0.115c1.223-0.008,2.211-0.995,2.218-2.217c0-0.235-0.037-0.476-0.116-0.712
			l-0.046-0.276c0-0.224,0.093-0.434,0.251-0.593c0.159-0.158,0.369-0.251,0.593-0.251l0.276,0.046h0.001
			c0.235,0.078,0.476,0.116,0.71,0.116c1.223-0.007,2.211-0.995,2.218-2.217c0-0.235-0.037-0.476-0.116-0.711L12.62,9.574
			c0-0.224,0.093-0.435,0.251-0.593C13.03,8.823,13.24,8.73,13.464,8.73l0.276,0.047h0.001c0.235,0.078,0.476,0.117,0.71,0.117
			c1.223-0.008,2.211-0.995,2.219-2.218c0-0.234-0.038-0.474-0.117-0.711l-0.046-0.276c0-0.224,0.094-0.434,0.251-0.592
			c0.156-0.158,0.366-0.251,0.591-0.251l0.275,0.046l0.218,0.036c0.379,0,0.687-0.308,0.687-0.688
			C18.528,3.936,18.329,3.688,18.056,3.597L18.056,3.597z M18.056,3.597"/>
	</g>
</g>
<g id="Слой_2">
</g>
</svg>
