<?xml version="1.0" encoding="utf-8"?>
<!-- Generator: Adobe Illustrator 16.2.0, SVG Export Plug-In . SVG Version: 6.00 Build 0)  -->
<!DOCTYPE svg PUBLIC "-//W3C//DTD SVG 1.1//EN" "http://www.w3.org/Graphics/SVG/1.1/DTD/svg11.dtd">
<svg version="1.1" xmlns="http://www.w3.org/2000/svg" xmlns:xlink="http://www.w3.org/1999/xlink" x="0px" y="0px" width="22px"
	 height="22px" viewBox="0 0 22 22" enable-background="new 0 0 22 22" xml:space="preserve">
<g id="Layer_1">
	<path fill="#5C0D04" d="M11,22C9.905,22,0.781,13.801,0.05,7.371l0.003-0.001C0.022,7.249,0,7.023,0,6.58C0,2.952,2.952,0,6.581,0
		C8.224,0,9.786,0.606,11,1.711C12.214,0.606,13.776,0,15.419,0C19.048,0,22,2.952,22,6.58c0,0.106-0.003,0.551-0.056,0.782h0.006
		C21.227,13.796,12.097,22,11,22z M6.581,1.376c-2.87,0-5.205,2.335-5.205,5.204c0,0.319,0.036,0.588,0.037,0.593
		C1.962,12.225,8.969,19.189,11,20.508c2.031-1.319,9.037-8.281,9.587-13.322c0.001-0.011,0.038-0.281,0.038-0.606
		c0-2.869-2.335-5.204-5.205-5.204c-1.348,0-2.627,0.516-3.603,1.454L11,3.615L10.183,2.83C9.208,1.893,7.928,1.376,6.581,1.376z"/>
</g>
<g id="Слой_2">
</g>
</svg>
