<svg xmlns="http://www.w3.org/2000/svg" viewBox="0 0 22.41 22.41">
	<defs><style>.cls-1{fill:#5c0d04;}.cls-2{fill:#ff6b6f;}</style>
</defs>
<title>fly</title>
	<g data-name="Layer 1">
		<path class="cls-1" d="M22.39.8a.63.63,0,0,0,0-.1.7.7,0,0,0-.7-.7h-.11V0L.51,9H.44l-.23.11,0,0a.69.69,0,0,0,.09,1.09v0l8.35,3.44L12,21.93l.07.16h0a.69.69,0,0,0,1.13.06h0L22.34,1l.08-.19ZM2.5,9.7,18.64,2.78,9,12.39ZM12.71,19.91,10,13.38l9.6-9.6Z"/>
		<path class="cls-2" d="M2.7,20.41a.7.7,0,0,1-.5-1.2l5-5a.7.7,0,1,1,1,1l-5,5A.7.7,0,0,1,2.7,20.41Z"/>
		<path class="cls-2" d="M6.7,19.41a.7.7,0,0,1-.5-1.2l1.5-1.5a.7.7,0,1,1,1,1L7.2,19.2A.7.7,0,0,1,6.7,19.41Z"/>
		<path class="cls-2" d="M4.7,15.41a.7.7,0,0,1-.5-1.2l.5-.5a.7.7,0,1,1,1,1l-.5.5A.7.7,0,0,1,4.7,15.41Z"/>
	</g>
</svg>