<?xml version="1.0" encoding="utf-8"?>
<!-- Generator: Adobe Illustrator 16.2.0, SVG Export Plug-In . SVG Version: 6.00 Build 0)  -->
<!DOCTYPE svg PUBLIC "-//W3C//DTD SVG 1.1//EN" "http://www.w3.org/Graphics/SVG/1.1/DTD/svg11.dtd">
<svg version="1.1" xmlns="http://www.w3.org/2000/svg" xmlns:xlink="http://www.w3.org/1999/xlink" x="0px" y="0px" width="22px"
	 height="22px" viewBox="0 0 22 22" enable-background="new 0 0 22 22" xml:space="preserve">
<g id="Layer_1">
	<g>
		<g>
			<path fill="#5C0D04" d="M3.634,22c-0.379,0-0.688-0.308-0.688-0.687V9.713l-1.772,1.773c-0.127,0.13-0.301,0.201-0.486,0.201
				C0.309,11.688,0,11.379,0,11c0-0.184,0.072-0.356,0.202-0.485L10.514,0.203C10.644,0.072,10.817,0,11,0s0.356,0.072,0.486,0.203
				l2.264,2.264V1.67c0-0.379,0.309-0.688,0.688-0.688h2.946c0.379,0,0.688,0.308,0.688,0.688v5.118l3.728,3.727
				C21.928,10.644,22,10.816,22,11c0,0.379-0.309,0.688-0.688,0.688c-0.186,0-0.359-0.071-0.487-0.202l-1.771-1.772v11.599
				c0,0.379-0.309,0.687-0.688,0.687H3.634z M12.768,20.625v-7.464H9.232v7.464H12.768z M17.678,20.595V8.338L11,1.66L4.322,8.338
				v12.256h3.535v-8.122c0-0.379,0.309-0.688,0.688-0.688h4.91c0.379,0,0.688,0.308,0.688,0.688v8.122H17.678z M16.696,5.413V2.357
				h-1.571v1.485L16.696,5.413z M11.491,18.071c-0.379,0-0.688-0.308-0.688-0.688s0.309-0.688,0.688-0.688s0.688,0.308,0.688,0.688
				S11.87,18.071,11.491,18.071z"/>
			<rect x="9.232" y="13.161" fill="#FF6B6F" width="3.535" height="7.464"/>
		</g>
		<circle fill="#5C0D04" cx="11.523" cy="17.375" r="0.687"/>
	</g>
</g>
<g id="Слой_2">
</g>
</svg>
