<?xml version="1.0" encoding="utf-8"?>
<!-- Generator: Adobe Illustrator 16.2.0, SVG Export Plug-In . SVG Version: 6.00 Build 0)  -->
<!DOCTYPE svg PUBLIC "-//W3C//DTD SVG 1.1//EN" "http://www.w3.org/Graphics/SVG/1.1/DTD/svg11.dtd">
<svg version="1.1" xmlns="http://www.w3.org/2000/svg" xmlns:xlink="http://www.w3.org/1999/xlink" x="0px" y="0px" width="22px"
	 height="22px" viewBox="0 0 22 22" enable-background="new 0 0 22 22" xml:space="preserve">
<g id="more-gray">
	<path fill="#858585" d="M19.347,13.7c-1.462,0-2.652-1.212-2.652-2.701s1.189-2.7,2.652-2.7c1.462,0,2.652,1.211,2.652,2.7
		S20.809,13.7,19.347,13.7z M19.347,9.7c-0.704,0-1.277,0.583-1.277,1.299s0.573,1.3,1.277,1.3s1.276-0.583,1.276-1.3
		S20.051,9.7,19.347,9.7z M10.999,13.7c-1.462,0-2.652-1.212-2.652-2.701s1.189-2.7,2.652-2.7c1.462,0,2.652,1.211,2.652,2.7
		S12.461,13.7,10.999,13.7z M10.999,9.7c-0.704,0-1.276,0.583-1.276,1.299s0.572,1.3,1.276,1.3s1.276-0.583,1.276-1.3
		S11.703,9.7,10.999,9.7z M2.651,13.7c-1.462,0-2.652-1.212-2.652-2.701s1.19-2.7,2.652-2.7c1.462,0,2.652,1.211,2.652,2.7
		S4.113,13.7,2.651,13.7z M2.651,9.7C1.947,9.7,1.375,10.283,1.375,11s0.572,1.3,1.276,1.3s1.277-0.583,1.277-1.3
		S3.355,9.7,2.651,9.7z"/>
</g>
<g id="Слой_2">
</g>
</svg>
