<svg xmlns="http://www.w3.org/2000/svg" viewBox="0 0 22.4 22.4"><defs><style>.cls-1{fill:#5c0d04;}</style></defs><title>pass</title><g id="Слой_2" data-name="Слой 2"><g id="Layer_1" data-name="Layer 1"><path class="cls-1" d="M17.7,22.4a.7.7,0,0,1-.7-.7V20.4H15.7a.7.7,0,0,1-.7-.7V18.4H13.7a.7.7,0,0,1-.49-.21l-2.77-2.78-.34.34a2.2,2.2,0,0,1-3.11,0L.64,9.4a2.2,2.2,0,0,1,0-3.11L6.29.64A2.2,2.2,0,0,1,9.4.64L15.75,7a2.2,2.2,0,0,1,0,3.11l-.32.32,6.76,6.78a.7.7,0,0,1,.21.49v4a.7.7,0,0,1-.7.7ZM21,21V18l-7.06-7.07a.69.69,0,0,1-.21-.49A.7.7,0,0,1,14,9.9l.78-.79a.8.8,0,0,0,0-1.13L8.41,1.63a.8.8,0,0,0-1.13,0L1.63,7.28a.8.8,0,0,0,0,1.13L8,14.76a.8.8,0,0,0,1.13,0L9.93,14a.67.67,0,0,1,.51-.23.69.69,0,0,1,.49.21L14,17H15.7a.7.7,0,0,1,.7.7V19h1.3a.7.7,0,0,1,.7.7V21ZM7.21,9.41a2.2,2.2,0,1,1,2.2-2.2A2.2,2.2,0,0,1,7.21,9.41Zm0-3a.8.8,0,1,0,.8.8A.8.8,0,0,0,7.21,6.41Z"/></g></g></svg>