<?xml version="1.0" encoding="utf-8"?>
<!-- Generator: Adobe Illustrator 16.2.0, SVG Export Plug-In . SVG Version: 6.00 Build 0)  -->
<!DOCTYPE svg PUBLIC "-//W3C//DTD SVG 1.1//EN" "http://www.w3.org/Graphics/SVG/1.1/DTD/svg11.dtd">
<svg version="1.1" xmlns="http://www.w3.org/2000/svg" xmlns:xlink="http://www.w3.org/1999/xlink" x="0px" y="0px" width="22px"
	 height="22px" viewBox="0 0 22 22" enable-background="new 0 0 22 22" xml:space="preserve">
<g id="Layer_1">
	<g>
		<g>
			<path fill="#5C0D04" d="M11,3.539c-4.114,0-7.461,3.348-7.461,7.461S6.886,18.462,11,18.462c4.113,0,7.461-3.348,7.461-7.461
				S15.113,3.539,11,3.539L11,3.539z M11,17.026c-3.323,0-6.026-2.703-6.026-6.026c0-3.323,2.703-6.026,6.026-6.026
				c3.322,0,6.026,2.703,6.026,6.026C17.026,14.323,14.322,17.026,11,17.026L11,17.026z M11,17.026"/>
			<path fill="#5C0D04" d="M20.62,8.484c-0.371-0.396-0.722-0.771-0.862-1.112c-0.153-0.368-0.175-0.925-0.195-1.463
				c-0.036-0.927-0.076-1.978-0.784-2.687c-0.709-0.708-1.76-0.749-2.687-0.785c-0.539-0.02-1.096-0.042-1.465-0.195
				c-0.34-0.142-0.715-0.492-1.11-0.863C12.826,0.733,12.044,0,11,0C9.955,0,9.173,0.733,8.483,1.38
				C8.087,1.751,7.713,2.101,7.372,2.243C7.004,2.396,6.446,2.417,5.908,2.438C4.98,2.473,3.93,2.514,3.222,3.222
				c-0.709,0.708-0.749,1.76-0.784,2.687C2.416,6.447,2.395,7.004,2.242,7.372C2.102,7.713,1.75,8.088,1.379,8.484
				C0.732,9.174,0,9.955,0,11s0.732,1.826,1.379,2.516c0.371,0.396,0.723,0.771,0.863,1.111c0.152,0.368,0.174,0.925,0.195,1.464
				c0.035,0.927,0.075,1.978,0.784,2.686c0.708,0.708,1.759,0.75,2.687,0.784c0.538,0.021,1.096,0.043,1.464,0.196
				c0.341,0.141,0.715,0.491,1.111,0.863C9.173,21.267,9.955,22,11,22c1.044,0,1.826-0.733,2.517-1.379
				c0.396-0.372,0.771-0.722,1.11-0.863c0.369-0.153,0.926-0.175,1.465-0.195c0.927-0.035,1.978-0.076,2.686-0.785
				c0.709-0.708,0.749-1.759,0.785-2.686c0.021-0.539,0.042-1.096,0.194-1.464c0.142-0.341,0.492-0.715,0.863-1.111
				C21.267,12.827,22,12.046,22,11S21.267,9.174,20.62,8.484L20.62,8.484z M19.573,12.536c-0.442,0.473-0.9,0.96-1.142,1.542
				c-0.251,0.606-0.277,1.293-0.303,1.959c-0.027,0.696-0.055,1.416-0.365,1.727c-0.312,0.311-1.031,0.338-1.728,0.366
				c-0.665,0.025-1.353,0.052-1.959,0.304c-0.581,0.24-1.069,0.699-1.542,1.142c-0.521,0.487-1.058,0.991-1.535,0.991
				s-1.016-0.504-1.536-0.991c-0.473-0.442-0.961-0.901-1.542-1.142c-0.606-0.252-1.294-0.278-1.959-0.304
				c-0.696-0.027-1.416-0.055-1.727-0.366c-0.312-0.311-0.339-1.03-0.365-1.727c-0.025-0.665-0.052-1.353-0.304-1.959
				c-0.241-0.582-0.698-1.07-1.142-1.542C1.938,12.016,1.435,11.478,1.435,11c0-0.478,0.504-1.016,0.991-1.536
				c0.443-0.472,0.9-0.961,1.142-1.542c0.251-0.606,0.278-1.294,0.304-1.958c0.026-0.697,0.054-1.416,0.365-1.727
				c0.311-0.311,1.03-0.339,1.727-0.366C6.628,3.846,7.315,3.82,7.922,3.568c0.581-0.241,1.069-0.699,1.542-1.142
				C9.984,1.939,10.522,1.435,11,1.435s1.015,0.504,1.535,0.991c0.473,0.443,0.961,0.9,1.542,1.142
				c0.606,0.252,1.294,0.278,1.959,0.303c0.696,0.027,1.416,0.055,1.728,0.366c0.311,0.312,0.338,1.03,0.365,1.727
				c0.025,0.665,0.052,1.353,0.303,1.958c0.241,0.582,0.699,1.07,1.142,1.542c0.487,0.52,0.991,1.058,0.991,1.536
				C20.564,11.478,20.061,12.016,19.573,12.536L19.573,12.536z M19.573,12.536"/>
		</g>
		<g>
			<path fill="#FF6B6F" d="M10.999,9.75c0.073,0,0.147-0.027,0.203-0.085c0.78-0.78,0.78-2.05,0-2.831
				c-0.112-0.112-0.294-0.112-0.406,0c-0.376,0.379-0.585,0.88-0.585,1.417c0,0.534,0.209,1.036,0.585,1.414
				C10.854,9.723,10.927,9.75,10.999,9.75L10.999,9.75z"/>
			<path fill="#FF6B6F" d="M10.999,15.25c0.073,0,0.147-0.027,0.203-0.085c0.78-0.78,0.78-2.05,0-2.831
				c-0.112-0.112-0.294-0.112-0.406,0c-0.376,0.379-0.585,0.88-0.585,1.417c0,0.534,0.209,1.036,0.585,1.414
				C10.854,15.223,10.927,15.25,10.999,15.25L10.999,15.25z"/>
		</g>
		<g>
			<path fill="#FF6B6F" d="M12.249,11c0,0.073,0.027,0.147,0.085,0.203c0.78,0.781,2.05,0.781,2.831,0
				c0.112-0.112,0.112-0.294,0-0.406c-0.379-0.376-0.881-0.585-1.417-0.585c-0.534,0-1.036,0.209-1.414,0.585
				C12.276,10.854,12.249,10.928,12.249,11L12.249,11z"/>
			<path fill="#FF6B6F" d="M6.749,11c0,0.073,0.027,0.147,0.085,0.203c0.78,0.781,2.05,0.781,2.831,0
				c0.112-0.112,0.112-0.294,0-0.406c-0.379-0.376-0.881-0.585-1.417-0.585c-0.534,0-1.036,0.209-1.414,0.585
				C6.776,10.854,6.749,10.928,6.749,11L6.749,11z"/>
		</g>
	</g>
</g>
<g id="Слой_2">
</g>
</svg>
