<?xml version="1.0" encoding="utf-8"?>
<!-- Generator: Adobe Illustrator 16.2.0, SVG Export Plug-In . SVG Version: 6.00 Build 0)  -->
<!DOCTYPE svg PUBLIC "-//W3C//DTD SVG 1.1//EN" "http://www.w3.org/Graphics/SVG/1.1/DTD/svg11.dtd">
<svg version="1.1" xmlns="http://www.w3.org/2000/svg" xmlns:xlink="http://www.w3.org/1999/xlink" x="0px" y="0px" width="22px"
	 height="22px" viewBox="0 0 22 22" enable-background="new 0 0 22 22" xml:space="preserve">
<g id="Layer_1">
	<path fill="#5C0D04" d="M21.313,22c-0.185,0-0.358-0.072-0.486-0.202l-5.073-5.073c-1.736,1.503-3.939,2.33-6.226,2.33
		C4.274,19.055,0,14.781,0,9.526C0,4.273,4.274,0,9.527,0s9.527,4.273,9.527,9.526c0,2.288-0.826,4.492-2.329,6.226l5.074,5.076
		C21.928,20.957,22,21.129,22,21.313C22,21.693,21.691,22,21.313,22z M9.527,1.375c-4.495,0-8.151,3.657-8.151,8.152
		c0,4.496,3.656,8.153,8.151,8.153c4.495,0,8.151-3.657,8.151-8.153C17.678,5.031,14.021,1.375,9.527,1.375z"/>
</g>
<g id="Слой_2">
</g>
</svg>
