<svg xmlns="http://www.w3.org/2000/svg" viewBox="0 0 15.47 8.75">	
	<title>vk_wt</title>	
	<g>
		<g id="vk_wt">
			<path d="M13.32,5.57a21.19,21.19,0,0,1,1.52,1.52,4.53,4.53,0,0,1,.54.78c.21.4,0,.85-.34.87H12.78a1.74,1.74,0,0,1-1.44-.58c-.31-.32-.6-.66-.9-1A2.11,2.11,0,0,0,10,6.82.47.47,0,0,0,9.29,7,2.33,2.33,0,0,0,9,8.05c0,.53-.19.67-.72.69a5.77,5.77,0,0,1-3.23-.69A7.14,7.14,0,0,1,2.94,6,27.42,27.42,0,0,1,.08.93C-.1.53,0,.31.47.3c.74,0,1.47,0,2.21,0a.65.65,0,0,1,.61.46,13.66,13.66,0,0,0,1.5,2.77,2.39,2.39,0,0,0,.56.62A.34.34,0,0,0,5.94,4a1.91,1.91,0,0,0,.13-.58,8.65,8.65,0,0,0,0-2A.85.85,0,0,0,5.31.59c-.22,0-.18-.12-.08-.24A.81.81,0,0,1,5.92,0H8.46c.4.08.49.26.55.66V3.49c0,.16.08.62.36.72s.37-.11.51-.25a8.73,8.73,0,0,0,1.43-2.2c.17-.35.32-.71.47-1.07A.54.54,0,0,1,12.36.3H15c.41.07.53.25.4.65a6.09,6.09,0,0,1-1,1.69c-.41.57-.84,1.11-1.25,1.68s-.34.78.12,1.23Z" fill="#fff"/>
		</g>
	</g>
</svg>